<?xml version="1.0" encoding="UTF-8"?>
<!DOCTYPE svg PUBLIC '-//W3C//DTD SVG 1.0//EN' 'http://www.w3.org/TR/2001/REC-SVG-20010904/DTD/svg10.dtd'>
<svg fill-opacity="0" xmlns:xlink="http://www.w3.org/1999/xlink" color-rendering="auto" color-interpolation="auto"
    text-rendering="auto" stroke="rgb(0,0,0)" stroke-linecap="square" width="635" stroke-miterlimit="10"
    shape-rendering="auto" stroke-opacity="0" fill="rgb(0,0,0)" stroke-dasharray="none" font-weight="normal"
    stroke-width="1" height="906" xmlns="http://www.w3.org/2000/svg" font-family="'Dialog'" font-style="normal"
    stroke-linejoin="miter" font-size="12px" stroke-dashoffset="0" image-rendering="auto">
    <!--Generated by the Batik Graphics2D SVG Generator-->
    <defs id="genericDefs" />
    <g>
        <defs id="defs1">
            <clipPath clipPathUnits="userSpaceOnUse" id="clipPath1">
                <path d="M-7 -7 L41 -7 L41 71 L-7 71 L-7 -7 Z" />
            </clipPath>
            <clipPath clipPathUnits="userSpaceOnUse" id="clipPath2">
                <path d="M-7 -7 L511 -7 L511 911 L-7 911 L-7 -7 Z" />
            </clipPath>
            <clipPath clipPathUnits="userSpaceOnUse" id="clipPath3">
                <path d="M0 0 L0 900 L500 900 L500 0 Z" />
            </clipPath>
            <clipPath clipPathUnits="userSpaceOnUse" id="clipPath4">
                <path d="M-7 -7 L193 -7 L193 51 L-7 51 L-7 -7 Z" />
            </clipPath>
            <clipPath clipPathUnits="userSpaceOnUse" id="clipPath5">
                <path d="M0 0 L0 40 L182 40 L182 0 Z" />
            </clipPath>
            <clipPath clipPathUnits="userSpaceOnUse" id="clipPath6">
                <path d="M-7 -7 L188 -7 L188 51 L-7 51 L-7 -7 Z" />
            </clipPath>
            <clipPath clipPathUnits="userSpaceOnUse" id="clipPath7">
                <path d="M0 0 L0 40 L177 40 L177 0 Z" />
            </clipPath>
            <clipPath clipPathUnits="userSpaceOnUse" id="clipPath8">
                <path d="M-7 -7 L115 -7 L115 51 L-7 51 L-7 -7 Z" />
            </clipPath>
            <clipPath clipPathUnits="userSpaceOnUse" id="clipPath9">
                <path d="M0 0 L0 40 L104 40 L104 0 Z" />
            </clipPath>
            <clipPath clipPathUnits="userSpaceOnUse" id="clipPath10">
                <path d="M-7 -7 L251 -7 L251 51 L-7 51 L-7 -7 Z" />
            </clipPath>
            <clipPath clipPathUnits="userSpaceOnUse" id="clipPath11">
                <path d="M0 0 L0 40 L240 40 L240 0 Z" />
            </clipPath>
            <clipPath clipPathUnits="userSpaceOnUse" id="clipPath12">
                <path d="M-7 -7 L131 -7 L131 51 L-7 51 L-7 -7 Z" />
            </clipPath>
            <clipPath clipPathUnits="userSpaceOnUse" id="clipPath13">
                <path d="M0 0 L0 40 L120 40 L120 0 Z" />
            </clipPath>
            <clipPath clipPathUnits="userSpaceOnUse" id="clipPath14">
                <path d="M-58 -14 L116 -14 L116 28 L-58 28 L-58 -14 Z" />
            </clipPath>
            <clipPath clipPathUnits="userSpaceOnUse" id="clipPath15">
                <path d="M0 0 L328 0 L328 358 L0 358 L0 0 Z" />
            </clipPath>
            <clipPath clipPathUnits="userSpaceOnUse" id="clipPath16">
                <path d="M73 34 L73 48 L15 48 L15 34 ZM0 0 L0 358 L328 358 L328 0 Z" />
            </clipPath>
            <clipPath clipPathUnits="userSpaceOnUse" id="clipPath17">
                <path d="M0 0 L390 0 L390 208 L0 208 L0 0 Z" />
            </clipPath>
            <clipPath clipPathUnits="userSpaceOnUse" id="clipPath18">
                <path d="M67 34 L67 48 L9 48 L9 34 ZM0 0 L0 208 L390 208 L390 0 Z" />
            </clipPath>
            <clipPath clipPathUnits="userSpaceOnUse" id="clipPath19">
                <path d="M0 0 L363 0 L363 223 L0 223 L0 0 Z" />
            </clipPath>
            <clipPath clipPathUnits="userSpaceOnUse" id="clipPath20">
                <path d="M0 0 L0 223 L363 223 L363 0 Z" />
            </clipPath>
            <clipPath clipPathUnits="userSpaceOnUse" id="clipPath21">
                <path d="M0 0 L350 0 L350 104 L0 104 L0 0 Z" />
            </clipPath>
            <clipPath clipPathUnits="userSpaceOnUse" id="clipPath22">
                <path d="M64 80 L64 94 L6 94 L6 80 ZM0 0 L0 104 L350 104 L350 0 Z" />
            </clipPath>
            <clipPath clipPathUnits="userSpaceOnUse" id="clipPath23">
                <path d="M0 0 L394 0 L394 508 L0 508 L0 0 Z" />
            </clipPath>
            <clipPath clipPathUnits="userSpaceOnUse" id="clipPath24">
                <path d="M79 34 L79 48 L21 48 L21 34 ZM0 0 L0 508 L394 508 L394 0 Z" />
            </clipPath>
        </defs>
        <g fill="white" text-rendering="geometricPrecision" fill-opacity="1" stroke-opacity="1" stroke="white">
            <rect x="0" width="635" height="906" y="0" stroke="none" />
        </g>
        <g font-size="11px" transform="translate(16,272)" fill-opacity="1" fill="rgb(122,207,245)"
            text-rendering="geometricPrecision" image-rendering="optimizeQuality" font-family="sans-serif"
            stroke="rgb(122,207,245)" stroke-opacity="1">
            <circle r="7.5" clip-path="url(#clipPath1)" cx="14.5" cy="7.5" stroke="none" />
        </g>
        <g stroke-linecap="butt" font-size="11px" transform="translate(16,272)" fill-opacity="1" fill="black"
            text-rendering="geometricPrecision" image-rendering="optimizeQuality" font-family="sans-serif"
            stroke-linejoin="round" stroke="black" stroke-opacity="1" stroke-miterlimit="0">
            <circle fill="none" r="7.5" clip-path="url(#clipPath1)" cx="14.5" cy="7.5" />
            <line y2="40" fill="none" x1="15" clip-path="url(#clipPath1)" x2="15" y1="15" />
            <line y2="24" fill="none" x1="0" clip-path="url(#clipPath1)" x2="30" y1="24" />
            <line y2="60" fill="none" x1="15" clip-path="url(#clipPath1)" x2="0" y1="40" />
            <line y2="60" fill="none" x1="15" clip-path="url(#clipPath1)" x2="30" y1="40" />
        </g>
        <g font-size="11px" transform="translate(131,2)" fill-opacity="1" fill="rgb(224,224,224)"
            text-rendering="geometricPrecision" image-rendering="optimizeQuality" font-family="sans-serif"
            stroke="rgb(224,224,224)" stroke-opacity="1">
            <rect x="0" width="499" height="899" y="0" clip-path="url(#clipPath2)" stroke="none" />
        </g>
        <g stroke-linecap="butt" font-size="11px" transform="translate(131,2)" fill-opacity="1" fill="black"
            text-rendering="geometricPrecision" image-rendering="optimizeQuality" font-family="sans-serif"
            stroke-linejoin="round" stroke="black" stroke-opacity="1" stroke-miterlimit="0">
            <rect fill="none" x="0" width="499" height="899" y="0" clip-path="url(#clipPath2)" />
        </g>
        <g font-size="11px" transform="translate(131,2)" fill-opacity="1" fill="black"
            text-rendering="geometricPrecision" image-rendering="optimizeQuality" font-family="sans-serif"
            stroke="black" stroke-opacity="1"><text x="153" xml:space="preserve" y="11" clip-path="url(#clipPath3)"
                stroke="none">Daten validieren (Terminverwaltung)</text></g>
        <g font-size="11px" transform="translate(290,132)" fill-opacity="1" fill="rgb(122,207,245)"
            text-rendering="geometricPrecision" image-rendering="optimizeQuality" font-family="sans-serif"
            stroke="rgb(122,207,245)" stroke-opacity="1">
            <ellipse rx="91" ry="20" clip-path="url(#clipPath4)" cx="91" cy="20" stroke="none" />
        </g>
        <g stroke-linecap="butt" font-size="11px" transform="translate(290,132)" fill-opacity="1" fill="black"
            text-rendering="geometricPrecision" image-rendering="optimizeQuality" font-family="sans-serif"
            stroke-linejoin="round" stroke="black" stroke-opacity="1" stroke-miterlimit="0">
            <ellipse rx="91" fill="none" ry="20" clip-path="url(#clipPath4)" cx="91" cy="20" />
        </g>
        <g font-size="11px" transform="translate(290,132)" fill-opacity="1" fill="black"
            text-rendering="geometricPrecision" image-rendering="optimizeQuality" font-family="sans-serif"
            stroke="black" stroke-opacity="1"><text x="27" xml:space="preserve" y="17" clip-path="url(#clipPath5)"
                stroke="none">StartZeitpunkt ist valide</text><text x="65" xml:space="preserve" y="31"
                clip-path="url(#clipPath5)" stroke="none">DateTime</text></g>
        <g font-size="11px" transform="translate(292,282)" fill-opacity="1" fill="rgb(122,207,245)"
            text-rendering="geometricPrecision" image-rendering="optimizeQuality" font-family="sans-serif"
            stroke="rgb(122,207,245)" stroke-opacity="1">
            <ellipse rx="88.5" ry="20" clip-path="url(#clipPath6)" cx="88.5" cy="20" stroke="none" />
        </g>
        <g stroke-linecap="butt" font-size="11px" transform="translate(292,282)" fill-opacity="1" fill="black"
            text-rendering="geometricPrecision" image-rendering="optimizeQuality" font-family="sans-serif"
            stroke-linejoin="round" stroke="black" stroke-opacity="1" stroke-miterlimit="0">
            <ellipse rx="88.5" fill="none" ry="20" clip-path="url(#clipPath6)" cx="88.5" cy="20" />
        </g>
        <g font-size="11px" transform="translate(292,282)" fill-opacity="1" fill="black"
            text-rendering="geometricPrecision" image-rendering="optimizeQuality" font-family="sans-serif"
            stroke="black" stroke-opacity="1"><text x="24" xml:space="preserve" y="17" clip-path="url(#clipPath7)"
                stroke="none">EndZeitpunkt ist valides</text><text x="62" xml:space="preserve" y="31"
                clip-path="url(#clipPath7)" stroke="none">DateTime</text></g>
        <g font-size="11px" transform="translate(329,432)" fill-opacity="1" fill="rgb(122,207,245)"
            text-rendering="geometricPrecision" image-rendering="optimizeQuality" font-family="sans-serif"
            stroke="rgb(122,207,245)" stroke-opacity="1">
            <ellipse rx="52" ry="20" clip-path="url(#clipPath8)" cx="52" cy="20" stroke="none" />
        </g>
        <g stroke-linecap="butt" font-size="11px" transform="translate(329,432)" fill-opacity="1" fill="black"
            text-rendering="geometricPrecision" image-rendering="optimizeQuality" font-family="sans-serif"
            stroke-linejoin="round" stroke="black" stroke-opacity="1" stroke-miterlimit="0">
            <ellipse rx="52" fill="none" ry="20" clip-path="url(#clipPath8)" cx="52" cy="20" />
        </g>
        <g font-size="11px" transform="translate(329,432)" fill-opacity="1" fill="black"
            text-rendering="geometricPrecision" image-rendering="optimizeQuality" font-family="sans-serif"
            stroke="black" stroke-opacity="1"><text x="4" xml:space="preserve" y="24" clip-path="url(#clipPath9)"
                stroke="none">Titel ist nicht leer</text></g>
        <g font-size="11px" transform="translate(261,582)" fill-opacity="1" fill="rgb(122,207,245)"
            text-rendering="geometricPrecision" image-rendering="optimizeQuality" font-family="sans-serif"
            stroke="rgb(122,207,245)" stroke-opacity="1">
            <ellipse rx="120" ry="20" clip-path="url(#clipPath10)" cx="120" cy="20" stroke="none" />
        </g>
        <g stroke-linecap="butt" font-size="11px" transform="translate(261,582)" fill-opacity="1" fill="black"
            text-rendering="geometricPrecision" image-rendering="optimizeQuality" font-family="sans-serif"
            stroke-linejoin="round" stroke="black" stroke-opacity="1" stroke-miterlimit="0">
            <ellipse rx="120" fill="none" ry="20" clip-path="url(#clipPath10)" cx="120" cy="20" />
        </g>
        <g font-size="11px" transform="translate(261,582)" fill-opacity="1" fill="black"
            text-rendering="geometricPrecision" image-rendering="optimizeQuality" font-family="sans-serif"
            stroke="black" stroke-opacity="1"><text x="28" xml:space="preserve" y="17" clip-path="url(#clipPath11)"
                stroke="none">AuftragsID entspricht der ID eines</text><text x="58" xml:space="preserve" y="31"
                clip-path="url(#clipPath11)" stroke="none">existierenden Auftrags</text></g>
        <g font-size="11px" transform="translate(321,732)" fill-opacity="1" fill="rgb(122,207,245)"
            text-rendering="geometricPrecision" image-rendering="optimizeQuality" font-family="sans-serif"
            stroke="rgb(122,207,245)" stroke-opacity="1">
            <ellipse rx="60" ry="20" clip-path="url(#clipPath12)" cx="60" cy="20" stroke="none" />
        </g>
        <g stroke-linecap="butt" font-size="11px" transform="translate(321,732)" fill-opacity="1" fill="black"
            text-rendering="geometricPrecision" image-rendering="optimizeQuality" font-family="sans-serif"
            stroke-linejoin="round" stroke="black" stroke-opacity="1" stroke-miterlimit="0">
            <ellipse rx="60" fill="none" ry="20" clip-path="url(#clipPath12)" cx="60" cy="20" />
        </g>
        <g font-size="11px" transform="translate(321,732)" fill-opacity="1" fill="black"
            text-rendering="geometricPrecision" image-rendering="optimizeQuality" font-family="sans-serif"
            stroke="black" stroke-opacity="1"><text x="5" xml:space="preserve" y="24" clip-path="url(#clipPath13)"
                stroke="none">TerminID generieren</text></g>
        <g font-size="11px" transform="translate(2,332)" fill-opacity="1" fill="black"
            text-rendering="geometricPrecision" image-rendering="optimizeQuality" font-family="sans-serif"
            stroke="black" stroke-opacity="1"><text x="10" xml:space="preserve" y="11" clip-path="url(#clipPath14)"
                stroke="none">System</text></g>
        <g stroke-linecap="butt" font-size="11px" transform="translate(-13,298)" fill-opacity="1" fill="black"
            text-rendering="geometricPrecision" image-rendering="optimizeQuality" font-family="sans-serif"
            stroke-linejoin="round" stroke="black" stroke-opacity="1">
            <line y2="304" fill="none" x1="50" clip-path="url(#clipPath16)" x2="50" y1="50" />
            <line y2="304" fill="none" x1="50" clip-path="url(#clipPath16)" x2="274" y1="304" />
        </g>
        <g stroke-linecap="butt" font-size="11px" transform="translate(-7,298)" fill-opacity="1" fill="black"
            text-rendering="geometricPrecision" image-rendering="optimizeQuality" font-family="sans-serif"
            stroke-linejoin="round" stroke="black" stroke-opacity="1">
            <line y2="154" fill="none" x1="50" clip-path="url(#clipPath18)" x2="50" y1="50" />
            <line y2="154" fill="none" x1="50" clip-path="url(#clipPath18)" x2="336" y1="154" />
        </g>
        <g stroke-linecap="butt" font-size="11px" transform="translate(-19,102)" fill-opacity="1" fill="black"
            text-rendering="geometricPrecision" image-rendering="optimizeQuality" font-family="sans-serif"
            stroke-linejoin="round" stroke="black" stroke-opacity="1">
            <line y2="50" fill="none" x1="50" clip-path="url(#clipPath20)" x2="50" y1="169" />
            <line y2="50" fill="none" x1="50" clip-path="url(#clipPath20)" x2="309" y1="50" />
        </g>
        <g stroke-linecap="butt" font-size="11px" transform="translate(-4,252)" fill-opacity="1" fill="black"
            text-rendering="geometricPrecision" image-rendering="optimizeQuality" font-family="sans-serif"
            stroke-linejoin="round" stroke="black" stroke-opacity="1">
            <line y2="50" fill="none" x1="50" clip-path="url(#clipPath22)" x2="296" y1="50" />
        </g>
        <g stroke-linecap="butt" font-size="11px" transform="translate(-19,298)" fill-opacity="1" fill="black"
            text-rendering="geometricPrecision" image-rendering="optimizeQuality" font-family="sans-serif"
            stroke-linejoin="round" stroke="black" stroke-opacity="1">
            <line y2="454" fill="none" x1="50" clip-path="url(#clipPath24)" x2="50" y1="50" />
            <line y2="454" fill="none" x1="50" clip-path="url(#clipPath24)" x2="340" y1="454" />
        </g>
        <g font-size="8px" fill-opacity="1" fill="rgb(120,120,120)" text-rendering="geometricPrecision"
            image-rendering="optimizeQuality" stroke="rgb(120,120,120)" stroke-opacity="1"></g>
    </g>
</svg>