<?xml version="1.0" encoding="UTF-8"?>
<!DOCTYPE svg PUBLIC '-//W3C//DTD SVG 1.0//EN' 'http://www.w3.org/TR/2001/REC-SVG-20010904/DTD/svg10.dtd'>
<svg fill-opacity="0" xmlns:xlink="http://www.w3.org/1999/xlink" color-rendering="auto" color-interpolation="auto"
    text-rendering="auto" stroke="rgb(0,0,0)" stroke-linecap="square" width="752" stroke-miterlimit="10"
    shape-rendering="auto" stroke-opacity="0" fill="rgb(0,0,0)" stroke-dasharray="none" font-weight="normal"
    stroke-width="1" height="624" xmlns="http://www.w3.org/2000/svg" font-family="'Dialog'" font-style="normal"
    stroke-linejoin="miter" font-size="12px" stroke-dashoffset="0" image-rendering="auto">
    <!--Generated by the Batik Graphics2D SVG Generator-->
    <defs id="genericDefs" />
    <g>
        <defs id="defs1">
            <clipPath clipPathUnits="userSpaceOnUse" id="clipPath1">
                <path d="M-7 -7 L41 -7 L41 71 L-7 71 L-7 -7 Z" />
            </clipPath>
            <clipPath clipPathUnits="userSpaceOnUse" id="clipPath2">
                <path d="M-7 -7 L521 -7 L521 481 L-7 481 L-7 -7 Z" />
            </clipPath>
            <clipPath clipPathUnits="userSpaceOnUse" id="clipPath3">
                <path d="M0 0 L0 470 L510 470 L510 0 Z" />
            </clipPath>
            <clipPath clipPathUnits="userSpaceOnUse" id="clipPath4">
                <path d="M-7 -7 L106 -7 L106 51 L-7 51 L-7 -7 Z" />
            </clipPath>
            <clipPath clipPathUnits="userSpaceOnUse" id="clipPath5">
                <path d="M0 0 L0 40 L95 40 L95 0 Z" />
            </clipPath>
            <clipPath clipPathUnits="userSpaceOnUse" id="clipPath6">
                <path d="M-7 -7 L141 -7 L141 51 L-7 51 L-7 -7 Z" />
            </clipPath>
            <clipPath clipPathUnits="userSpaceOnUse" id="clipPath7">
                <path d="M0 0 L0 40 L130 40 L130 0 Z" />
            </clipPath>
            <clipPath clipPathUnits="userSpaceOnUse" id="clipPath8">
                <path d="M-7 -7 L91 -7 L91 51 L-7 51 L-7 -7 Z" />
            </clipPath>
            <clipPath clipPathUnits="userSpaceOnUse" id="clipPath9">
                <path d="M0 0 L0 40 L80 40 L80 0 Z" />
            </clipPath>
            <clipPath clipPathUnits="userSpaceOnUse" id="clipPath10">
                <path d="M-7 -7 L146 -7 L146 51 L-7 51 L-7 -7 Z" />
            </clipPath>
            <clipPath clipPathUnits="userSpaceOnUse" id="clipPath11">
                <path d="M0 0 L0 40 L135 40 L135 0 Z" />
            </clipPath>
            <clipPath clipPathUnits="userSpaceOnUse" id="clipPath12">
                <path d="M-7 -7 L266 -7 L266 140 L-7 140 L-7 -7 Z" />
            </clipPath>
            <clipPath clipPathUnits="userSpaceOnUse" id="clipPath13">
                <path d="M0 0 L0 129 L240 129 L240 0 Z" />
            </clipPath>
            <clipPath clipPathUnits="userSpaceOnUse" id="clipPath14">
                <path d="M-7 -7 L143 -7 L143 51 L-7 51 L-7 -7 Z" />
            </clipPath>
            <clipPath clipPathUnits="userSpaceOnUse" id="clipPath15">
                <path d="M0 0 L0 40 L132 40 L132 0 Z" />
            </clipPath>
            <clipPath clipPathUnits="userSpaceOnUse" id="clipPath16">
                <path d="M-106 -28 L212 -28 L212 56 L-106 56 L-106 -28 Z" />
            </clipPath>
            <clipPath clipPathUnits="userSpaceOnUse" id="clipPath17">
                <path d="M-94 -14 L188 -14 L188 28 L-94 28 L-94 -14 Z" />
            </clipPath>
            <clipPath clipPathUnits="userSpaceOnUse" id="clipPath18">
                <path d="M-89 -14 L178 -14 L178 28 L-89 28 L-89 -14 Z" />
            </clipPath>
            <clipPath clipPathUnits="userSpaceOnUse" id="clipPath19">
                <path d="M0 0 L219 0 L219 164 L0 164 L0 0 Z" />
            </clipPath>
            <clipPath clipPathUnits="userSpaceOnUse" id="clipPath20">
                <path
                    d="M210 54 L210 68 L116 68 L116 54 ZM149 94 L149 108 L55 108 L55 94 ZM0 0 L0 164 L219 164 L219 0 Z" />
            </clipPath>
            <clipPath clipPathUnits="userSpaceOnUse" id="clipPath21">
                <path d="M0 0 L104 0 L104 161 L0 161 L0 0 Z" />
            </clipPath>
            <clipPath clipPathUnits="userSpaceOnUse" id="clipPath22">
                <path d="M0 0 L0 71 L48 71 L48 85 L0 85 L0 161 L104 161 L104 0 Z" />
            </clipPath>
            <clipPath clipPathUnits="userSpaceOnUse" id="clipPath23">
                <path d="M0 0 L237 0 L237 164 L0 164 L0 0 Z" />
            </clipPath>
            <clipPath clipPathUnits="userSpaceOnUse" id="clipPath24">
                <path d="M168 94 L168 108 L74 108 L74 94 ZM0 0 L0 164 L237 164 L237 0 Z" />
            </clipPath>
            <clipPath clipPathUnits="userSpaceOnUse" id="clipPath25">
                <path d="M0 0 L104 0 L104 249 L0 249 L0 0 Z" />
            </clipPath>
            <clipPath clipPathUnits="userSpaceOnUse" id="clipPath26">
                <path d="M0 0 L0 115 L48 115 L48 129 L0 129 L0 249 L104 249 L104 0 Z" />
            </clipPath>
            <clipPath clipPathUnits="userSpaceOnUse" id="clipPath27">
                <path d="M0 0 L104 0 L104 245 L0 245 L0 0 Z" />
            </clipPath>
            <clipPath clipPathUnits="userSpaceOnUse" id="clipPath28">
                <path d="M0 0 L0 245 L104 245 L104 0 Z" />
            </clipPath>
            <clipPath clipPathUnits="userSpaceOnUse" id="clipPath29">
                <path d="M0 0 L104 0 L104 218 L0 218 L0 0 Z" />
            </clipPath>
            <clipPath clipPathUnits="userSpaceOnUse" id="clipPath30">
                <path d="M0 0 L0 218 L104 218 L104 0 Z" />
            </clipPath>
            <clipPath clipPathUnits="userSpaceOnUse" id="clipPath31">
                <path d="M0 0 L104 0 L104 239 L0 239 L0 0 Z" />
            </clipPath>
            <clipPath clipPathUnits="userSpaceOnUse" id="clipPath32">
                <path d="M0 0 L0 239 L76 239 L76 225 L104 225 L104 0 Z" />
            </clipPath>
            <clipPath clipPathUnits="userSpaceOnUse" id="clipPath33">
                <path d="M0 0 L430 0 L430 104 L0 104 L0 0 Z" />
            </clipPath>
            <clipPath clipPathUnits="userSpaceOnUse" id="clipPath34">
                <path
                    d="M360 34 L360 48 L266 48 L266 34 ZM0 0 L0 58 L80 58 L80 72 L0 72 L0 104 L430 104 L430 0 L421 0 L421 8 L327 8 L327 0 Z" />
            </clipPath>
            <clipPath clipPathUnits="userSpaceOnUse" id="clipPath35">
                <path d="M0 0 L104 0 L104 255 L0 255 L0 0 Z" />
            </clipPath>
            <clipPath clipPathUnits="userSpaceOnUse" id="clipPath36">
                <path
                    d="M95 34 L95 48 L6 48 L6 34 ZM0 0 L0 204 L50 204 L50 218 L0 218 L0 255 L104 255 L104 219 L93 219 L93 191 L104 191 L104 0 Z" />
            </clipPath>
            <clipPath clipPathUnits="userSpaceOnUse" id="clipPath37">
                <path d="M0 0 L138 0 L138 188 L0 188 L0 0 Z" />
            </clipPath>
            <clipPath clipPathUnits="userSpaceOnUse" id="clipPath38">
                <path d="M0 0 L0 38 L48 38 L48 52 L0 52 L0 188 L138 188 L138 0 Z" />
            </clipPath>
        </defs>
        <g fill="white" text-rendering="geometricPrecision" fill-opacity="1" stroke-opacity="1" stroke="white">
            <rect x="0" width="752" height="624" y="0" stroke="none" />
        </g>
        <g font-size="11px" transform="translate(175,465)" fill-opacity="1" fill="rgb(122,207,245)"
            text-rendering="geometricPrecision" image-rendering="optimizeQuality" font-family="sans-serif"
            stroke="rgb(122,207,245)" stroke-opacity="1">
            <circle r="7.5" clip-path="url(#clipPath1)" cx="14.5" cy="7.5" stroke="none" />
        </g>
        <g stroke-linecap="butt" font-size="11px" transform="translate(175,465)" fill-opacity="1" fill="black"
            text-rendering="geometricPrecision" image-rendering="optimizeQuality" font-family="sans-serif"
            stroke-linejoin="round" stroke="black" stroke-opacity="1" stroke-miterlimit="0">
            <circle fill="none" r="7.5" clip-path="url(#clipPath1)" cx="14.5" cy="7.5" />
            <line y2="40" fill="none" x1="15" clip-path="url(#clipPath1)" x2="15" y1="15" />
            <line y2="24" fill="none" x1="0" clip-path="url(#clipPath1)" x2="30" y1="24" />
            <line y2="60" fill="none" x1="15" clip-path="url(#clipPath1)" x2="0" y1="40" />
            <line y2="60" fill="none" x1="15" clip-path="url(#clipPath1)" x2="30" y1="40" />
        </g>
        <g font-size="11px" transform="translate(238,150)" fill-opacity="1" fill="rgb(224,224,224)"
            text-rendering="geometricPrecision" image-rendering="optimizeQuality" font-family="sans-serif"
            stroke="rgb(224,224,224)" stroke-opacity="1">
            <rect x="0" width="509" height="469" y="0" clip-path="url(#clipPath2)" stroke="none" />
        </g>
        <g stroke-linecap="butt" font-size="11px" transform="translate(238,150)" fill-opacity="1" fill="black"
            text-rendering="geometricPrecision" image-rendering="optimizeQuality" font-family="sans-serif"
            stroke-linejoin="round" stroke="black" stroke-opacity="1" stroke-miterlimit="0">
            <rect fill="none" x="0" width="509" height="469" y="0" clip-path="url(#clipPath2)" />
        </g>
        <g font-size="11px" transform="translate(238,150)" fill-opacity="1" fill="black"
            text-rendering="geometricPrecision" image-rendering="optimizeQuality" font-family="sans-serif"
            stroke="black" stroke-opacity="1"><text x="235" xml:space="preserve" y="11" clip-path="url(#clipPath3)"
                stroke="none">Ändern</text></g>
        <g font-size="11px" transform="translate(25,478)" fill-opacity="1" fill="rgb(122,207,245)"
            text-rendering="geometricPrecision" image-rendering="optimizeQuality" font-family="sans-serif"
            stroke="rgb(122,207,245)" stroke-opacity="1">
            <circle r="7.5" clip-path="url(#clipPath1)" cx="14.5" cy="7.5" stroke="none" />
        </g>
        <g stroke-linecap="butt" font-size="11px" transform="translate(25,478)" fill-opacity="1" fill="black"
            text-rendering="geometricPrecision" image-rendering="optimizeQuality" font-family="sans-serif"
            stroke-linejoin="round" stroke="black" stroke-opacity="1" stroke-miterlimit="0">
            <circle fill="none" r="7.5" clip-path="url(#clipPath1)" cx="14.5" cy="7.5" />
            <line y2="40" fill="none" x1="15" clip-path="url(#clipPath1)" x2="15" y1="15" />
            <line y2="24" fill="none" x1="0" clip-path="url(#clipPath1)" x2="30" y1="24" />
            <line y2="60" fill="none" x1="15" clip-path="url(#clipPath1)" x2="0" y1="40" />
            <line y2="60" fill="none" x1="15" clip-path="url(#clipPath1)" x2="30" y1="40" />
        </g>
        <g font-size="11px" transform="translate(79,308)" fill-opacity="1" fill="rgb(122,207,245)"
            text-rendering="geometricPrecision" image-rendering="optimizeQuality" font-family="sans-serif"
            stroke="rgb(122,207,245)" stroke-opacity="1">
            <circle r="7.5" clip-path="url(#clipPath1)" cx="14.5" cy="7.5" stroke="none" />
        </g>
        <g stroke-linecap="butt" font-size="11px" transform="translate(79,308)" fill-opacity="1" fill="black"
            text-rendering="geometricPrecision" image-rendering="optimizeQuality" font-family="sans-serif"
            stroke-linejoin="round" stroke="black" stroke-opacity="1" stroke-miterlimit="0">
            <circle fill="none" r="7.5" clip-path="url(#clipPath1)" cx="14.5" cy="7.5" />
            <line y2="40" fill="none" x1="15" clip-path="url(#clipPath1)" x2="15" y1="15" />
            <line y2="24" fill="none" x1="0" clip-path="url(#clipPath1)" x2="30" y1="24" />
            <line y2="60" fill="none" x1="15" clip-path="url(#clipPath1)" x2="0" y1="40" />
            <line y2="60" fill="none" x1="15" clip-path="url(#clipPath1)" x2="30" y1="40" />
        </g>
        <g font-size="11px" transform="translate(435,340)" fill-opacity="1" fill="rgb(122,207,245)"
            text-rendering="geometricPrecision" image-rendering="optimizeQuality" font-family="sans-serif"
            stroke="rgb(122,207,245)" stroke-opacity="1">
            <ellipse rx="47.5" ry="20" clip-path="url(#clipPath4)" cx="47.5" cy="20" stroke="none" />
        </g>
        <g stroke-linecap="butt" font-size="11px" transform="translate(435,340)" fill-opacity="1" fill="black"
            text-rendering="geometricPrecision" image-rendering="optimizeQuality" font-family="sans-serif"
            stroke-linejoin="round" stroke="black" stroke-opacity="1" stroke-miterlimit="0">
            <ellipse rx="47.5" fill="none" ry="20" clip-path="url(#clipPath4)" cx="47.5" cy="20" />
        </g>
        <g font-size="11px" transform="translate(435,340)" fill-opacity="1" fill="black"
            text-rendering="geometricPrecision" image-rendering="optimizeQuality" font-family="sans-serif"
            stroke="black" stroke-opacity="1"><text x="5" xml:space="preserve" y="24" clip-path="url(#clipPath5)"
                stroke="none">Daten anpassen</text></g>
        <g font-size="11px" transform="translate(255,260)" fill-opacity="1" fill="rgb(128,255,128)"
            text-rendering="geometricPrecision" image-rendering="optimizeQuality" font-family="sans-serif"
            stroke="rgb(128,255,128)" stroke-opacity="1">
            <ellipse rx="65" ry="20" clip-path="url(#clipPath6)" cx="65" cy="20" stroke="none" />
        </g>
        <g stroke-linecap="butt" font-size="11px" transform="translate(255,260)" fill-opacity="1" fill="black"
            text-rendering="geometricPrecision" image-rendering="optimizeQuality" font-family="sans-serif"
            stroke-linejoin="round" stroke="black" stroke-opacity="1" stroke-miterlimit="0">
            <ellipse rx="65" fill="none" ry="20" clip-path="url(#clipPath6)" cx="65" cy="20" />
        </g>
        <g font-size="11px" transform="translate(255,260)" fill-opacity="1" fill="black"
            text-rendering="geometricPrecision" image-rendering="optimizeQuality" font-family="sans-serif"
            stroke="black" stroke-opacity="1"><text x="4" xml:space="preserve" y="24" clip-path="url(#clipPath7)"
                stroke="none">Datenfelder verändern</text></g>
        <g font-size="11px" transform="translate(442,243)" fill-opacity="1" fill="rgb(128,255,128)"
            text-rendering="geometricPrecision" image-rendering="optimizeQuality" font-family="sans-serif"
            stroke="rgb(128,255,128)" stroke-opacity="1">
            <ellipse rx="40" ry="20" clip-path="url(#clipPath8)" cx="40" cy="20" stroke="none" />
        </g>
        <g stroke-linecap="butt" font-size="11px" transform="translate(442,243)" fill-opacity="1" fill="black"
            text-rendering="geometricPrecision" image-rendering="optimizeQuality" font-family="sans-serif"
            stroke-linejoin="round" stroke="black" stroke-opacity="1" stroke-miterlimit="0">
            <ellipse rx="40" fill="none" ry="20" clip-path="url(#clipPath8)" cx="40" cy="20" />
        </g>
        <g font-size="11px" transform="translate(442,243)" fill-opacity="1" fill="black"
            text-rendering="geometricPrecision" image-rendering="optimizeQuality" font-family="sans-serif"
            stroke="black" stroke-opacity="1"><text x="24" xml:space="preserve" y="17" clip-path="url(#clipPath9)"
                stroke="none">Daten</text><text x="14" xml:space="preserve" y="31" clip-path="url(#clipPath9)"
                stroke="none">validieren</text></g>
        <g font-size="11px" transform="translate(596,260)" fill-opacity="1" fill="rgb(128,255,128)"
            text-rendering="geometricPrecision" image-rendering="optimizeQuality" font-family="sans-serif"
            stroke="rgb(128,255,128)" stroke-opacity="1">
            <ellipse rx="67.5" ry="20" clip-path="url(#clipPath10)" cx="67.5" cy="20" stroke="none" />
        </g>
        <g stroke-linecap="butt" font-size="11px" transform="translate(596,260)" fill-opacity="1" fill="black"
            text-rendering="geometricPrecision" image-rendering="optimizeQuality" font-family="sans-serif"
            stroke-linejoin="round" stroke="black" stroke-opacity="1" stroke-miterlimit="0">
            <ellipse rx="67.5" fill="none" ry="20" clip-path="url(#clipPath10)" cx="67.5" cy="20" />
        </g>
        <g font-size="11px" transform="translate(596,260)" fill-opacity="1" fill="black"
            text-rendering="geometricPrecision" image-rendering="optimizeQuality" font-family="sans-serif"
            stroke="black" stroke-opacity="1"><text x="5" xml:space="preserve" y="24" clip-path="url(#clipPath11)"
                stroke="none">Änderungen bestätigen</text></g>
        <g transform="translate(355,0)" fill-opacity="1" fill="rgb(122,207,245)" text-rendering="geometricPrecision"
            image-rendering="optimizeQuality" font-family="sans-serif" stroke="rgb(122,207,245)" stroke-opacity="1">
            <polygon points=" 0 0 239 0 254 15 239 15 239 0 254 15 254 128 0 128" stroke="none"
                clip-path="url(#clipPath12)" />
        </g>
        <g stroke-linecap="butt" transform="translate(355,0)" fill-opacity="1" fill="black"
            text-rendering="geometricPrecision" image-rendering="optimizeQuality" font-family="sans-serif"
            stroke-linejoin="round" stroke="black" stroke-opacity="1" stroke-miterlimit="0">
            <polygon fill="none" points=" 0 0 239 0 254 15 239 15 239 0 254 15 254 128 0 128"
                clip-path="url(#clipPath12)" />
        </g>
        <g font-size="13px" transform="translate(355,0)" fill-opacity="1" fill="black"
            text-rendering="geometricPrecision" image-rendering="optimizeQuality" font-family="'Lucida Grande'"
            stroke="black" stroke-opacity="1">
            <path
                d="M3.5566 14.6016 L3.5566 13.6172 L8.2148 6.8496 L3.8438 6.8496 L3.8438 5.9297 L9.6914 5.9297 L9.6914 6.8496 L5.0332 13.6172 L9.6914 13.6172 L9.6914 14.6016 ZM15.1328 14.6016 L15.1328 13.4062 Q14.2129 14.748 12.9004 14.748 Q12.0684 14.748 11.5762 14.2236 Q11.084 13.6992 11.084 12.8086 L11.084 8.2383 L12.2383 8.2383 L12.2383 12.4336 Q12.2383 13.1484 12.4463 13.4502 Q12.6543 13.752 13.1406 13.752 Q14.1953 13.752 15.1328 12.3633 L15.1328 8.2383 L16.2871 8.2383 L16.2871 14.6016 ZM22.8184 14.3965 Q21.6582 14.748 20.832 14.748 Q19.4258 14.748 18.5381 13.8135 Q17.6504 12.8789 17.6504 11.3906 Q17.6504 9.9434 18.4326 9.0176 Q19.2148 8.0918 20.4336 8.0918 Q21.5879 8.0918 22.2178 8.9121 Q22.8477 9.7324 22.8477 11.2441 L22.8418 11.6016 L18.8281 11.6016 Q19.0801 13.8691 21.0488 13.8691 Q21.7695 13.8691 22.8184 13.4824 ZM18.8809 10.7344 L21.6875 10.7344 Q21.6875 8.959 20.3633 8.959 Q19.0332 8.959 18.8809 10.7344 ZM25.1543 14.6016 L25.1543 8.2383 L26.3086 8.2383 L26.3086 9.4336 Q26.9941 8.0977 28.3008 8.0977 Q28.4766 8.0977 28.6699 8.127 L28.6699 9.2051 Q28.3711 9.1055 28.1426 9.1055 Q27.0469 9.1055 26.3086 10.4062 L26.3086 14.6016 ZM31.8418 14.748 Q31.0508 14.748 29.9199 14.3789 L29.9199 13.3184 Q31.0508 13.8809 31.8887 13.8809 Q32.3867 13.8809 32.7148 13.6113 Q33.043 13.3418 33.043 12.9375 Q33.043 12.3457 32.123 11.959 L31.4492 11.6719 Q29.9551 11.0508 29.9551 9.8848 Q29.9551 9.0527 30.5439 8.5752 Q31.1328 8.0977 32.1582 8.0977 Q32.6914 8.0977 33.4766 8.2441 L33.7168 8.291 L33.7168 9.252 Q32.75 8.9648 32.1816 8.9648 Q31.0684 8.9648 31.0684 9.7734 Q31.0684 10.2949 31.9121 10.6523 L32.4688 10.8867 Q33.4121 11.2852 33.8047 11.7275 Q34.1973 12.1699 34.1973 12.832 Q34.1973 13.6699 33.5352 14.209 Q32.873 14.748 31.8418 14.748 ZM38.0645 14.748 Q37.1855 14.748 36.6934 14.2441 Q36.2012 13.7402 36.2012 12.8438 L36.2012 9.1055 L35.4043 9.1055 L35.4043 8.2383 L36.2012 8.2383 L36.2012 7.084 L37.3555 6.9727 L37.3555 8.2383 L39.0195 8.2383 L39.0195 9.1055 L37.3555 9.1055 L37.3555 12.6328 Q37.3555 13.8809 38.4336 13.8809 Q38.6621 13.8809 38.9902 13.8047 L38.9902 14.6016 Q38.457 14.748 38.0645 14.748 ZM44.1543 14.6016 L44.1543 8.2383 L45.3086 8.2383 L45.3086 9.4336 Q46.1523 8.0977 47.4766 8.0977 Q48.7539 8.0977 49.2168 9.4336 Q50.0371 8.0918 51.3496 8.0918 Q52.1934 8.0918 52.6562 8.5869 Q53.1191 9.082 53.1191 9.9727 L53.1191 14.6016 L51.959 14.6016 L51.959 10.1543 Q51.959 9.0645 51.0977 9.0645 Q50.2012 9.0645 49.2168 10.3359 L49.2168 14.6016 L48.0566 14.6016 L48.0566 10.1543 Q48.0566 9.0586 47.1777 9.0586 Q46.3047 9.0586 45.3086 10.3359 L45.3086 14.6016 ZM59.1328 14.6016 L59.1328 13.4062 Q58.2129 14.748 56.9004 14.748 Q56.0684 14.748 55.5762 14.2236 Q55.084 13.6992 55.084 12.8086 L55.084 8.2383 L56.2383 8.2383 L56.2383 12.4336 Q56.2383 13.1484 56.4463 13.4502 Q56.6543 13.752 57.1406 13.752 Q58.1953 13.752 59.1328 12.3633 L59.1328 8.2383 L60.2871 8.2383 L60.2871 14.6016 ZM56.0215 7.084 L56.0215 6.0703 L57.0352 6.0703 L57.0352 7.084 ZM58.3359 7.084 L58.3359 6.0703 L59.3496 6.0703 L59.3496 7.084 ZM63.8418 14.748 Q63.0508 14.748 61.9199 14.3789 L61.9199 13.3184 Q63.0508 13.8809 63.8887 13.8809 Q64.3867 13.8809 64.7148 13.6113 Q65.043 13.3418 65.043 12.9375 Q65.043 12.3457 64.123 11.959 L63.4492 11.6719 Q61.9551 11.0508 61.9551 9.8848 Q61.9551 9.0527 62.5439 8.5752 Q63.1328 8.0977 64.1582 8.0977 Q64.6914 8.0977 65.4766 8.2441 L65.7168 8.291 L65.7168 9.252 Q64.75 8.9648 64.1816 8.9648 Q63.0684 8.9648 63.0684 9.7734 Q63.0684 10.2949 63.9121 10.6523 L64.4688 10.8867 Q65.4121 11.2852 65.8047 11.7275 Q66.1973 12.1699 66.1973 12.832 Q66.1973 13.6699 65.5352 14.209 Q64.873 14.748 63.8418 14.748 ZM69.8418 14.748 Q69.0508 14.748 67.9199 14.3789 L67.9199 13.3184 Q69.0508 13.8809 69.8887 13.8809 Q70.3867 13.8809 70.7148 13.6113 Q71.043 13.3418 71.043 12.9375 Q71.043 12.3457 70.123 11.959 L69.4492 11.6719 Q67.9551 11.0508 67.9551 9.8848 Q67.9551 9.0527 68.5439 8.5752 Q69.1328 8.0977 70.1582 8.0977 Q70.6914 8.0977 71.4766 8.2441 L71.7168 8.291 L71.7168 9.252 Q70.75 8.9648 70.1816 8.9648 Q69.0684 8.9648 69.0684 9.7734 Q69.0684 10.2949 69.9121 10.6523 L70.4688 10.8867 Q71.4121 11.2852 71.8047 11.7275 Q72.1973 12.1699 72.1973 12.832 Q72.1973 13.6699 71.5352 14.209 Q70.873 14.748 69.8418 14.748 ZM78.8184 14.3965 Q77.6582 14.748 76.832 14.748 Q75.4258 14.748 74.5381 13.8135 Q73.6504 12.8789 73.6504 11.3906 Q73.6504 9.9434 74.4326 9.0176 Q75.2148 8.0918 76.4336 8.0918 Q77.5879 8.0918 78.2178 8.9121 Q78.8477 9.7324 78.8477 11.2441 L78.8418 11.6016 L74.8281 11.6016 Q75.0801 13.8691 77.0488 13.8691 Q77.7695 13.8691 78.8184 13.4824 ZM74.8809 10.7344 L77.6875 10.7344 Q77.6875 8.959 76.3633 8.959 Q75.0332 8.959 74.8809 10.7344 ZM81.1543 14.6016 L81.1543 8.2383 L82.3086 8.2383 L82.3086 9.4336 Q83.2227 8.0977 84.5469 8.0977 Q85.373 8.0977 85.8652 8.6221 Q86.3574 9.1465 86.3574 10.0312 L86.3574 14.6016 L85.2031 14.6016 L85.2031 10.4062 Q85.2031 9.6973 84.9951 9.3955 Q84.7871 9.0938 84.3066 9.0938 Q83.2461 9.0938 82.3086 10.4824 L82.3086 14.6016 ZM96.2383 14.6016 L96.2383 13.4062 Q95.5352 14.748 94.1172 14.748 Q92.9688 14.748 92.3096 13.9102 Q91.6504 13.0723 91.6504 11.6191 Q91.6504 10.0312 92.3975 9.0645 Q93.1445 8.0977 94.3633 8.0977 Q95.4941 8.0977 96.2383 8.9648 L96.2383 5.3496 L97.3984 5.3496 L97.3984 14.6016 ZM96.2383 9.7559 Q95.3418 8.9648 94.5391 8.9648 Q92.8809 8.9648 92.8809 11.502 Q92.8809 13.7344 94.3574 13.7344 Q95.3184 13.7344 96.2383 12.6855 ZM100.1543 14.6016 L100.1543 8.2383 L101.3086 8.2383 L101.3086 14.6016 ZM100.1543 7.084 L100.1543 5.9297 L101.3086 5.9297 L101.3086 7.084 ZM107.8184 14.3965 Q106.6582 14.748 105.832 14.748 Q104.4258 14.748 103.5381 13.8135 Q102.6504 12.8789 102.6504 11.3906 Q102.6504 9.9434 103.4326 9.0176 Q104.2148 8.0918 105.4336 8.0918 Q106.5879 8.0918 107.2178 8.9121 Q107.8477 9.7324 107.8477 11.2441 L107.8418 11.6016 L103.8281 11.6016 Q104.0801 13.8691 106.0488 13.8691 Q106.7695 13.8691 107.8184 13.4824 ZM103.8809 10.7344 L106.6875 10.7344 Q106.6875 8.959 105.3633 8.959 Q104.0332 8.959 103.8809 10.7344 ZM114.1191 14.6016 L114.1191 5.9297 L117.002 5.9297 Q118.291 5.9297 119.085 6.2168 Q119.8789 6.5039 120.459 7.1895 Q121.3789 8.2793 121.3789 10.0605 Q121.3789 12.2227 120.2363 13.4121 Q119.0938 14.6016 117.0195 14.6016 ZM115.3496 13.6816 L116.9258 13.6816 Q118.6133 13.6816 119.3164 12.7734 Q120.0723 11.8066 120.0723 10.1777 Q120.0723 8.6484 119.3281 7.7754 Q118.877 7.2422 118.25 7.0459 Q117.623 6.8496 116.3633 6.8496 L115.3496 6.8496 ZM126.4355 13.793 Q125.3984 14.748 124.4375 14.748 Q123.6465 14.748 123.125 14.2529 Q122.6035 13.7578 122.6035 13.002 Q122.6035 11.959 123.4795 11.3994 Q124.3555 10.8398 125.9902 10.8398 L126.2656 10.8398 L126.2656 10.0723 Q126.2656 8.9648 125.1289 8.9648 Q124.2148 8.9648 123.1543 9.5273 L123.1543 8.5723 Q124.3203 8.0977 125.3398 8.0977 Q126.4062 8.0977 126.9131 8.5781 Q127.4199 9.0586 127.4199 10.0723 L127.4199 12.9551 Q127.4199 13.9453 128.0293 13.9453 Q128.1055 13.9453 128.252 13.9219 L128.334 14.5605 Q127.9414 14.748 127.4668 14.748 Q126.6582 14.748 126.4355 13.793 ZM126.2656 13.166 L126.2656 11.5195 L125.8789 11.5078 Q124.9297 11.5078 124.3438 11.8682 Q123.7578 12.2285 123.7578 12.8145 Q123.7578 13.2305 124.0508 13.5176 Q124.3438 13.8047 124.7656 13.8047 Q125.4863 13.8047 126.2656 13.166 ZM132.0645 14.748 Q131.1855 14.748 130.6934 14.2441 Q130.2012 13.7402 130.2012 12.8438 L130.2012 9.1055 L129.4043 9.1055 L129.4043 8.2383 L130.2012 8.2383 L130.2012 7.084 L131.3555 6.9727 L131.3555 8.2383 L133.0195 8.2383 L133.0195 9.1055 L131.3555 9.1055 L131.3555 12.6328 Q131.3555 13.8809 132.4336 13.8809 Q132.6621 13.8809 132.9902 13.8047 L132.9902 14.6016 Q132.457 14.748 132.0645 14.748 ZM138.8184 14.3965 Q137.6582 14.748 136.832 14.748 Q135.4258 14.748 134.5381 13.8135 Q133.6504 12.8789 133.6504 11.3906 Q133.6504 9.9434 134.4326 9.0176 Q135.2148 8.0918 136.4336 8.0918 Q137.5879 8.0918 138.2178 8.9121 Q138.8477 9.7324 138.8477 11.2441 L138.8418 11.6016 L134.8281 11.6016 Q135.0801 13.8691 137.0488 13.8691 Q137.7695 13.8691 138.8184 13.4824 ZM134.8809 10.7344 L137.6875 10.7344 Q137.6875 8.959 136.3633 8.959 Q135.0332 8.959 134.8809 10.7344 ZM141.1543 14.6016 L141.1543 8.2383 L142.3086 8.2383 L142.3086 9.4336 Q143.2227 8.0977 144.5469 8.0977 Q145.373 8.0977 145.8652 8.6221 Q146.3574 9.1465 146.3574 10.0312 L146.3574 14.6016 L145.2031 14.6016 L145.2031 10.4062 Q145.2031 9.6973 144.9951 9.3955 Q144.7871 9.0938 144.3066 9.0938 Q143.2461 9.0938 142.3086 10.4824 L142.3086 14.6016 ZM149.5312 9.1055 L149.5312 14.6016 L148.3711 14.6016 L148.3711 9.1055 L147.4688 9.1055 L147.4688 8.2383 L148.3711 8.2383 L148.3711 7.4766 Q148.3711 5.2031 150.4453 5.2031 Q151.0254 5.2031 151.7637 5.3965 L151.7637 6.3105 Q150.9844 6.0703 150.5156 6.0703 Q149.9473 6.0703 149.7393 6.3428 Q149.5312 6.6152 149.5312 7.3535 L149.5312 8.2383 L151.1191 8.2383 L151.1191 9.1055 ZM156.8184 14.3965 Q155.6582 14.748 154.832 14.748 Q153.4258 14.748 152.5381 13.8135 Q151.6504 12.8789 151.6504 11.3906 Q151.6504 9.9434 152.4326 9.0176 Q153.2148 8.0918 154.4336 8.0918 Q155.5879 8.0918 156.2178 8.9121 Q156.8477 9.7324 156.8477 11.2441 L156.8418 11.6016 L152.8281 11.6016 Q153.0801 13.8691 155.0488 13.8691 Q155.7695 13.8691 156.8184 13.4824 ZM152.8809 10.7344 L155.6875 10.7344 Q155.6875 8.959 154.3633 8.959 Q153.0332 8.959 152.8809 10.7344 ZM159.1543 14.6016 L159.1543 5.3496 L160.3086 5.3496 L160.3086 14.6016 ZM166.2383 14.6016 L166.2383 13.4062 Q165.5352 14.748 164.1172 14.748 Q162.9688 14.748 162.3096 13.9102 Q161.6504 13.0723 161.6504 11.6191 Q161.6504 10.0312 162.3975 9.0645 Q163.1445 8.0977 164.3633 8.0977 Q165.4941 8.0977 166.2383 8.9648 L166.2383 5.3496 L167.3984 5.3496 L167.3984 14.6016 ZM166.2383 9.7559 Q165.3418 8.9648 164.5391 8.9648 Q162.8809 8.9648 162.8809 11.502 Q162.8809 13.7344 164.3574 13.7344 Q165.3184 13.7344 166.2383 12.6855 ZM174.8184 14.3965 Q173.6582 14.748 172.832 14.748 Q171.4258 14.748 170.5381 13.8135 Q169.6504 12.8789 169.6504 11.3906 Q169.6504 9.9434 170.4326 9.0176 Q171.2148 8.0918 172.4336 8.0918 Q173.5879 8.0918 174.2178 8.9121 Q174.8477 9.7324 174.8477 11.2441 L174.8418 11.6016 L170.8281 11.6016 Q171.0801 13.8691 173.0488 13.8691 Q173.7695 13.8691 174.8184 13.4824 ZM170.8809 10.7344 L173.6875 10.7344 Q173.6875 8.959 172.3633 8.959 Q171.0332 8.959 170.8809 10.7344 ZM177.1543 14.6016 L177.1543 8.2383 L178.3086 8.2383 L178.3086 9.4336 Q178.9941 8.0977 180.3008 8.0977 Q180.4766 8.0977 180.6699 8.127 L180.6699 9.2051 Q180.3711 9.1055 180.1426 9.1055 Q179.0469 9.1055 178.3086 10.4062 L178.3086 14.6016 Z"
                stroke="none" clip-path="url(#clipPath13)" />
            <path
                d="M7.4355 27.793 Q6.3984 28.748 5.4375 28.748 Q4.6465 28.748 4.125 28.2529 Q3.6035 27.7578 3.6035 27.002 Q3.6035 25.959 4.4795 25.3994 Q5.3555 24.8398 6.9902 24.8398 L7.2656 24.8398 L7.2656 24.0723 Q7.2656 22.9648 6.1289 22.9648 Q5.2148 22.9648 4.1543 23.5273 L4.1543 22.5723 Q5.3203 22.0977 6.3398 22.0977 Q7.4062 22.0977 7.9131 22.5781 Q8.4199 23.0586 8.4199 24.0723 L8.4199 26.9551 Q8.4199 27.9453 9.0293 27.9453 Q9.1055 27.9453 9.252 27.9219 L9.334 28.5605 Q8.9414 28.748 8.4668 28.748 Q7.6582 28.748 7.4355 27.793 ZM7.2656 27.166 L7.2656 25.5195 L6.8789 25.5078 Q5.9297 25.5078 5.3438 25.8682 Q4.7578 26.2285 4.7578 26.8145 Q4.7578 27.2305 5.0508 27.5176 Q5.3438 27.8047 5.7656 27.8047 Q6.4863 27.8047 7.2656 27.166 ZM11.1543 28.6016 L11.1543 22.2383 L12.3086 22.2383 L12.3086 23.4336 Q13.2227 22.0977 14.5469 22.0977 Q15.373 22.0977 15.8652 22.6221 Q16.3574 23.1465 16.3574 24.0312 L16.3574 28.6016 L15.2031 28.6016 L15.2031 24.4062 Q15.2031 23.6973 14.9951 23.3955 Q14.7871 23.0938 14.3066 23.0938 Q13.2461 23.0938 12.3086 24.4824 L12.3086 28.6016 ZM18.1777 30.7168 L18.3125 29.7148 Q19.3145 30.1895 20.2871 30.1895 Q22.2383 30.1895 22.2383 28.1211 L22.2383 27.1191 Q21.5996 28.4551 20.1406 28.4551 Q18.998 28.4551 18.3242 27.623 Q17.6504 26.791 17.6504 25.3789 Q17.6504 23.9258 18.418 23.0117 Q19.1855 22.0977 20.4043 22.0977 Q21.4707 22.0977 22.2383 22.9648 L22.2383 22.2383 L23.3984 22.2383 L23.3984 26.8672 Q23.3984 28.3613 23.2432 29.0791 Q23.0879 29.7969 22.6602 30.2539 Q21.9043 31.0566 20.3105 31.0566 Q19.1973 31.0566 18.1777 30.7168 ZM22.2383 26.3984 L22.2383 23.7559 Q21.4766 22.9648 20.5801 22.9648 Q19.7832 22.9648 19.332 23.6035 Q18.8809 24.2422 18.8809 25.3555 Q18.8809 27.4473 20.3516 27.4473 Q21.3535 27.4473 22.2383 26.3984 ZM29.8184 28.3965 Q28.6582 28.748 27.832 28.748 Q26.4258 28.748 25.5381 27.8135 Q24.6504 26.8789 24.6504 25.3906 Q24.6504 23.9434 25.4326 23.0176 Q26.2148 22.0918 27.4336 22.0918 Q28.5879 22.0918 29.2178 22.9121 Q29.8477 23.7324 29.8477 25.2441 L29.8418 25.6016 L25.8281 25.6016 Q26.0801 27.8691 28.0488 27.8691 Q28.7695 27.8691 29.8184 27.4824 ZM25.8809 24.7344 L28.6875 24.7344 Q28.6875 22.959 27.3633 22.959 Q26.0332 22.959 25.8809 24.7344 ZM32.1543 30.916 L32.1543 22.2383 L33.3086 22.2383 L33.3086 23.4336 Q34.0176 22.0977 35.4355 22.0977 Q36.584 22.0977 37.2432 22.9355 Q37.9023 23.7734 37.9023 25.2266 Q37.9023 26.8086 37.1553 27.7783 Q36.4082 28.748 35.1895 28.748 Q34.0586 28.748 33.3086 27.8809 L33.3086 30.916 ZM33.3086 27.084 Q34.1992 27.8809 35.0078 27.8809 Q36.6719 27.8809 36.6719 25.3438 Q36.6719 23.1055 35.1953 23.1055 Q34.2285 23.1055 33.3086 24.1543 ZM43.4355 27.793 Q42.3984 28.748 41.4375 28.748 Q40.6465 28.748 40.125 28.2529 Q39.6035 27.7578 39.6035 27.002 Q39.6035 25.959 40.4795 25.3994 Q41.3555 24.8398 42.9902 24.8398 L43.2656 24.8398 L43.2656 24.0723 Q43.2656 22.9648 42.1289 22.9648 Q41.2148 22.9648 40.1543 23.5273 L40.1543 22.5723 Q41.3203 22.0977 42.3398 22.0977 Q43.4062 22.0977 43.9131 22.5781 Q44.4199 23.0586 44.4199 24.0723 L44.4199 26.9551 Q44.4199 27.9453 45.0293 27.9453 Q45.1055 27.9453 45.252 27.9219 L45.334 28.5605 Q44.9414 28.748 44.4668 28.748 Q43.6582 28.748 43.4355 27.793 ZM43.2656 27.166 L43.2656 25.5195 L42.8789 25.5078 Q41.9297 25.5078 41.3438 25.8682 Q40.7578 26.2285 40.7578 26.8145 Q40.7578 27.2305 41.0508 27.5176 Q41.3438 27.8047 41.7656 27.8047 Q42.4863 27.8047 43.2656 27.166 ZM48.8418 28.748 Q48.0508 28.748 46.9199 28.3789 L46.9199 27.3184 Q48.0508 27.8809 48.8887 27.8809 Q49.3867 27.8809 49.7148 27.6113 Q50.043 27.3418 50.043 26.9375 Q50.043 26.3457 49.123 25.959 L48.4492 25.6719 Q46.9551 25.0508 46.9551 23.8848 Q46.9551 23.0527 47.5439 22.5752 Q48.1328 22.0977 49.1582 22.0977 Q49.6914 22.0977 50.4766 22.2441 L50.7168 22.291 L50.7168 23.252 Q49.75 22.9648 49.1816 22.9648 Q48.0684 22.9648 48.0684 23.7734 Q48.0684 24.2949 48.9121 24.6523 L49.4688 24.8867 Q50.4121 25.2852 50.8047 25.7275 Q51.1973 26.1699 51.1973 26.832 Q51.1973 27.6699 50.5352 28.209 Q49.873 28.748 48.8418 28.748 ZM54.8418 28.748 Q54.0508 28.748 52.9199 28.3789 L52.9199 27.3184 Q54.0508 27.8809 54.8887 27.8809 Q55.3867 27.8809 55.7148 27.6113 Q56.043 27.3418 56.043 26.9375 Q56.043 26.3457 55.123 25.959 L54.4492 25.6719 Q52.9551 25.0508 52.9551 23.8848 Q52.9551 23.0527 53.5439 22.5752 Q54.1328 22.0977 55.1582 22.0977 Q55.6914 22.0977 56.4766 22.2441 L56.7168 22.291 L56.7168 23.252 Q55.75 22.9648 55.1816 22.9648 Q54.0684 22.9648 54.0684 23.7734 Q54.0684 24.2949 54.9121 24.6523 L55.4688 24.8867 Q56.4121 25.2852 56.8047 25.7275 Q57.1973 26.1699 57.1973 26.832 Q57.1973 27.6699 56.5352 28.209 Q55.873 28.748 54.8418 28.748 ZM61.0645 28.748 Q60.1855 28.748 59.6934 28.2441 Q59.2012 27.7402 59.2012 26.8438 L59.2012 23.1055 L58.4043 23.1055 L58.4043 22.2383 L59.2012 22.2383 L59.2012 21.084 L60.3555 20.9727 L60.3555 22.2383 L62.0195 22.2383 L62.0195 23.1055 L60.3555 23.1055 L60.3555 26.6328 Q60.3555 27.8809 61.4336 27.8809 Q61.6621 27.8809 61.9902 27.8047 L61.9902 28.6016 Q61.457 28.748 61.0645 28.748 ZM67.8926 28.6016 L66.0703 22.2383 L67.2012 22.2383 L68.5957 27.166 L70.1016 22.2383 L71.2559 22.2383 L72.5742 27.166 L74.1738 22.2383 L75.1641 22.2383 L73.0898 28.6016 L71.9297 28.6016 L70.582 23.6738 L69.0586 28.6016 ZM80.8184 28.3965 Q79.6582 28.748 78.832 28.748 Q77.4258 28.748 76.5381 27.8135 Q75.6504 26.8789 75.6504 25.3906 Q75.6504 23.9434 76.4326 23.0176 Q77.2148 22.0918 78.4336 22.0918 Q79.5879 22.0918 80.2178 22.9121 Q80.8477 23.7324 80.8477 25.2441 L80.8418 25.6016 L76.8281 25.6016 Q77.0801 27.8691 79.0488 27.8691 Q79.7695 27.8691 80.8184 27.4824 ZM76.8809 24.7344 L79.6875 24.7344 Q79.6875 22.959 78.3633 22.959 Q77.0332 22.959 76.8809 24.7344 ZM83.1543 28.6016 L83.1543 22.2383 L84.3086 22.2383 L84.3086 23.4336 Q84.9941 22.0977 86.3008 22.0977 Q86.4766 22.0977 86.6699 22.127 L86.6699 23.2051 Q86.3711 23.1055 86.1426 23.1055 Q85.0469 23.1055 84.3086 24.4062 L84.3086 28.6016 ZM92.2383 28.6016 L92.2383 27.4062 Q91.5352 28.748 90.1172 28.748 Q88.9688 28.748 88.3096 27.9102 Q87.6504 27.0723 87.6504 25.6191 Q87.6504 24.0312 88.3975 23.0645 Q89.1445 22.0977 90.3633 22.0977 Q91.4941 22.0977 92.2383 22.9648 L92.2383 19.3496 L93.3984 19.3496 L93.3984 28.6016 ZM92.2383 23.7559 Q91.3418 22.9648 90.5391 22.9648 Q88.8809 22.9648 88.8809 25.502 Q88.8809 27.7344 90.3574 27.7344 Q91.3184 27.7344 92.2383 26.6855 ZM100.8184 28.3965 Q99.6582 28.748 98.832 28.748 Q97.4258 28.748 96.5381 27.8135 Q95.6504 26.8789 95.6504 25.3906 Q95.6504 23.9434 96.4326 23.0176 Q97.2148 22.0918 98.4336 22.0918 Q99.5879 22.0918 100.2178 22.9121 Q100.8477 23.7324 100.8477 25.2441 L100.8418 25.6016 L96.8281 25.6016 Q97.0801 27.8691 99.0488 27.8691 Q99.7695 27.8691 100.8184 27.4824 ZM96.8809 24.7344 L99.6875 24.7344 Q99.6875 22.959 98.3633 22.959 Q97.0332 22.959 96.8809 24.7344 ZM103.1543 28.6016 L103.1543 22.2383 L104.3086 22.2383 L104.3086 23.4336 Q105.2227 22.0977 106.5469 22.0977 Q107.373 22.0977 107.8652 22.6221 Q108.3574 23.1465 108.3574 24.0312 L108.3574 28.6016 L107.2031 28.6016 L107.2031 24.4062 Q107.2031 23.6973 106.9951 23.3955 Q106.7871 23.0938 106.3066 23.0938 Q105.2461 23.0938 104.3086 24.4824 L104.3086 28.6016 ZM110.1719 30.4824 L110.1719 30.0488 Q110.7344 29.8906 110.7344 28.7188 L110.7344 28.6016 L110.1719 28.6016 L110.1719 27.1543 L111.6191 27.1543 L111.6191 28.4082 Q111.6191 30.3359 110.1719 30.4824 ZM122.2383 28.6016 L122.2383 27.4062 Q121.5352 28.748 120.1172 28.748 Q118.9688 28.748 118.3096 27.9102 Q117.6504 27.0723 117.6504 25.6191 Q117.6504 24.0312 118.3975 23.0645 Q119.1445 22.0977 120.3633 22.0977 Q121.4941 22.0977 122.2383 22.9648 L122.2383 19.3496 L123.3984 19.3496 L123.3984 28.6016 ZM122.2383 23.7559 Q121.3418 22.9648 120.5391 22.9648 Q118.8809 22.9648 118.8809 25.502 Q118.8809 27.7344 120.3574 27.7344 Q121.3184 27.7344 122.2383 26.6855 ZM129.4355 27.793 Q128.3984 28.748 127.4375 28.748 Q126.6465 28.748 126.125 28.2529 Q125.6035 27.7578 125.6035 27.002 Q125.6035 25.959 126.4795 25.3994 Q127.3555 24.8398 128.9902 24.8398 L129.2656 24.8398 L129.2656 24.0723 Q129.2656 22.9648 128.1289 22.9648 Q127.2148 22.9648 126.1543 23.5273 L126.1543 22.5723 Q127.3203 22.0977 128.3398 22.0977 Q129.4062 22.0977 129.9131 22.5781 Q130.4199 23.0586 130.4199 24.0723 L130.4199 26.9551 Q130.4199 27.9453 131.0293 27.9453 Q131.1055 27.9453 131.252 27.9219 L131.334 28.5605 Q130.9414 28.748 130.4668 28.748 Q129.6582 28.748 129.4355 27.793 ZM129.2656 27.166 L129.2656 25.5195 L128.8789 25.5078 Q127.9297 25.5078 127.3438 25.8682 Q126.7578 26.2285 126.7578 26.8145 Q126.7578 27.2305 127.0508 27.5176 Q127.3438 27.8047 127.7656 27.8047 Q128.4863 27.8047 129.2656 27.166 ZM133.1543 28.6016 L133.1543 22.2383 L134.3086 22.2383 L134.3086 23.4336 Q135.2227 22.0977 136.5469 22.0977 Q137.373 22.0977 137.8652 22.6221 Q138.3574 23.1465 138.3574 24.0312 L138.3574 28.6016 L137.2031 28.6016 L137.2031 24.4062 Q137.2031 23.6973 136.9951 23.3955 Q136.7871 23.0938 136.3066 23.0938 Q135.2461 23.0938 134.3086 24.4824 L134.3086 28.6016 ZM143.4355 27.793 Q142.3984 28.748 141.4375 28.748 Q140.6465 28.748 140.125 28.2529 Q139.6035 27.7578 139.6035 27.002 Q139.6035 25.959 140.4795 25.3994 Q141.3555 24.8398 142.9902 24.8398 L143.2656 24.8398 L143.2656 24.0723 Q143.2656 22.9648 142.1289 22.9648 Q141.2148 22.9648 140.1543 23.5273 L140.1543 22.5723 Q141.3203 22.0977 142.3398 22.0977 Q143.4062 22.0977 143.9131 22.5781 Q144.4199 23.0586 144.4199 24.0723 L144.4199 26.9551 Q144.4199 27.9453 145.0293 27.9453 Q145.1055 27.9453 145.252 27.9219 L145.334 28.5605 Q144.9414 28.748 144.4668 28.748 Q143.6582 28.748 143.4355 27.793 ZM143.2656 27.166 L143.2656 25.5195 L142.8789 25.5078 Q141.9297 25.5078 141.3438 25.8682 Q140.7578 26.2285 140.7578 26.8145 Q140.7578 27.2305 141.0508 27.5176 Q141.3438 27.8047 141.7656 27.8047 Q142.4863 27.8047 143.2656 27.166 ZM149.6387 28.748 Q148.3496 28.748 147.5 27.793 Q146.6504 26.8379 146.6504 25.3848 Q146.6504 23.832 147.4912 22.9648 Q148.332 22.0977 149.8379 22.0977 Q150.582 22.0977 151.502 22.3027 L151.502 23.2695 Q150.5234 22.9824 149.9082 22.9824 Q149.0234 22.9824 148.4873 23.6475 Q147.9512 24.3125 147.9512 25.4199 Q147.9512 26.4922 148.502 27.1543 Q149.0527 27.8164 149.9434 27.8164 Q150.7344 27.8164 151.5723 27.4121 L151.5723 28.4082 Q150.4531 28.748 149.6387 28.748 ZM153.1543 28.6016 L153.1543 19.3496 L154.3086 19.3496 L154.3086 23.4336 Q155.2227 22.0977 156.5469 22.0977 Q157.373 22.0977 157.8652 22.6221 Q158.3574 23.1465 158.3574 24.0312 L158.3574 28.6016 L157.2031 28.6016 L157.2031 24.4062 Q157.2031 23.6973 156.9951 23.3955 Q156.7871 23.0938 156.3066 23.0938 Q155.2461 23.0938 154.3086 24.4824 L154.3086 28.6016 ZM164.8926 28.6016 L163.0703 22.2383 L164.2012 22.2383 L165.5957 27.166 L167.1016 22.2383 L168.2559 22.2383 L169.5742 27.166 L171.1738 22.2383 L172.1641 22.2383 L170.0898 28.6016 L168.9297 28.6016 L167.582 23.6738 L166.0586 28.6016 ZM177.8184 28.3965 Q176.6582 28.748 175.832 28.748 Q174.4258 28.748 173.5381 27.8135 Q172.6504 26.8789 172.6504 25.3906 Q172.6504 23.9434 173.4326 23.0176 Q174.2148 22.0918 175.4336 22.0918 Q176.5879 22.0918 177.2178 22.9121 Q177.8477 23.7324 177.8477 25.2441 L177.8418 25.6016 L173.8281 25.6016 Q174.0801 27.8691 176.0488 27.8691 Q176.7695 27.8691 177.8184 27.4824 ZM173.8809 24.7344 L176.6875 24.7344 Q176.6875 22.959 175.3633 22.959 Q174.0332 22.959 173.8809 24.7344 ZM180.1543 28.6016 L180.1543 22.2383 L181.3086 22.2383 L181.3086 23.4336 Q181.9941 22.0977 183.3008 22.0977 Q183.4766 22.0977 183.6699 22.127 L183.6699 23.2051 Q183.3711 23.1055 183.1426 23.1055 Q182.0469 23.1055 181.3086 24.4062 L181.3086 28.6016 ZM189.2383 28.6016 L189.2383 27.4062 Q188.5352 28.748 187.1172 28.748 Q185.9688 28.748 185.3096 27.9102 Q184.6504 27.0723 184.6504 25.6191 Q184.6504 24.0312 185.3975 23.0645 Q186.1445 22.0977 187.3633 22.0977 Q188.4941 22.0977 189.2383 22.9648 L189.2383 19.3496 L190.3984 19.3496 L190.3984 28.6016 ZM189.2383 23.7559 Q188.3418 22.9648 187.5391 22.9648 Q185.8809 22.9648 185.8809 25.502 Q185.8809 27.7344 187.3574 27.7344 Q188.3184 27.7344 189.2383 26.6855 ZM197.8184 28.3965 Q196.6582 28.748 195.832 28.748 Q194.4258 28.748 193.5381 27.8135 Q192.6504 26.8789 192.6504 25.3906 Q192.6504 23.9434 193.4326 23.0176 Q194.2148 22.0918 195.4336 22.0918 Q196.5879 22.0918 197.2178 22.9121 Q197.8477 23.7324 197.8477 25.2441 L197.8418 25.6016 L193.8281 25.6016 Q194.0801 27.8691 196.0488 27.8691 Q196.7695 27.8691 197.8184 27.4824 ZM193.8809 24.7344 L196.6875 24.7344 Q196.6875 22.959 195.3633 22.959 Q194.0332 22.959 193.8809 24.7344 ZM200.1543 28.6016 L200.1543 22.2383 L201.3086 22.2383 L201.3086 23.4336 Q202.2227 22.0977 203.5469 22.0977 Q204.373 22.0977 204.8652 22.6221 Q205.3574 23.1465 205.3574 24.0312 L205.3574 28.6016 L204.2031 28.6016 L204.2031 24.4062 Q204.2031 23.6973 203.9951 23.3955 Q203.7871 23.0938 203.3066 23.0938 Q202.2461 23.0938 201.3086 24.4824 L201.3086 28.6016 ZM215.2383 28.6016 L215.2383 27.4062 Q214.5352 28.748 213.1172 28.748 Q211.9688 28.748 211.3096 27.9102 Q210.6504 27.0723 210.6504 25.6191 Q210.6504 24.0312 211.3975 23.0645 Q212.1445 22.0977 213.3633 22.0977 Q214.4941 22.0977 215.2383 22.9648 L215.2383 19.3496 L216.3984 19.3496 L216.3984 28.6016 ZM215.2383 23.7559 Q214.3418 22.9648 213.5391 22.9648 Q211.8809 22.9648 211.8809 25.502 Q211.8809 27.7344 213.3574 27.7344 Q214.3184 27.7344 215.2383 26.6855 ZM219.1543 28.6016 L219.1543 22.2383 L220.3086 22.2383 L220.3086 28.6016 ZM219.1543 21.084 L219.1543 19.9297 L220.3086 19.9297 L220.3086 21.084 ZM226.8184 28.3965 Q225.6582 28.748 224.832 28.748 Q223.4258 28.748 222.5381 27.8135 Q221.6504 26.8789 221.6504 25.3906 Q221.6504 23.9434 222.4326 23.0176 Q223.2148 22.0918 224.4336 22.0918 Q225.5879 22.0918 226.2178 22.9121 Q226.8477 23.7324 226.8477 25.2441 L226.8418 25.6016 L222.8281 25.6016 Q223.0801 27.8691 225.0488 27.8691 Q225.7695 27.8691 226.8184 27.4824 ZM222.8809 24.7344 L225.6875 24.7344 Q225.6875 22.959 224.3633 22.959 Q223.0332 22.959 222.8809 24.7344 Z"
                clip-path="url(#clipPath13)" stroke="none" /><text x="3" font-size="12px" y="43"
                clip-path="url(#clipPath13)" text-rendering="optimizeLegibility" font-family="sans-serif" stroke="none"
                xml:space="preserve">Daten vom system validiert (ob z. B. </text>
            <path
                d="M4.1543 57.6719 L4.1543 48.3496 L5.3086 48.3496 L5.3086 52.4336 Q6.0176 51.0977 7.4355 51.0977 Q8.584 51.0977 9.2432 51.9355 Q9.9023 52.7734 9.9023 54.2266 Q9.9023 55.8086 9.1553 56.7783 Q8.4082 57.748 7.1895 57.748 Q6.0586 57.748 5.3086 56.8809 L5.168 57.6719 ZM5.3086 56.084 Q6.1992 56.8809 7.0078 56.8809 Q8.6719 56.8809 8.6719 54.3438 Q8.6719 52.1055 7.1953 52.1055 Q6.2285 52.1055 5.3086 53.1543 ZM16.8184 57.3965 Q15.6582 57.748 14.832 57.748 Q13.4258 57.748 12.5381 56.8135 Q11.6504 55.8789 11.6504 54.3906 Q11.6504 52.9434 12.4326 52.0176 Q13.2148 51.0918 14.4336 51.0918 Q15.5879 51.0918 16.2178 51.9121 Q16.8477 52.7324 16.8477 54.2441 L16.8418 54.6016 L12.8281 54.6016 Q13.0801 56.8691 15.0488 56.8691 Q15.7695 56.8691 16.8184 56.4824 ZM12.8809 53.7344 L15.6875 53.7344 Q15.6875 51.959 14.3633 51.959 Q13.0332 51.959 12.8809 53.7344 ZM19.1543 57.6016 L19.1543 51.2383 L20.3086 51.2383 L20.3086 57.6016 ZM19.1543 50.084 L19.1543 48.9297 L20.3086 48.9297 L20.3086 50.084 ZM25.7969 51.2383 L25.6504 48.3496 L26.8047 48.3496 L26.6641 51.2383 ZM27.8184 51.2383 L27.6719 48.3496 L28.832 48.3496 L28.6855 51.2383 ZM30.1191 57.6016 L30.1191 48.9297 L33.002 48.9297 Q34.291 48.9297 35.085 49.2168 Q35.8789 49.5039 36.459 50.1895 Q37.3789 51.2793 37.3789 53.0605 Q37.3789 55.2227 36.2363 56.4121 Q35.0938 57.6016 33.0195 57.6016 ZM31.3496 56.6816 L32.9258 56.6816 Q34.6133 56.6816 35.3164 55.7734 Q36.0723 54.8066 36.0723 53.1777 Q36.0723 51.6484 35.3281 50.7754 Q34.877 50.2422 34.25 50.0459 Q33.623 49.8496 32.3633 49.8496 L31.3496 49.8496 ZM42.4355 56.793 Q41.3984 57.748 40.4375 57.748 Q39.6465 57.748 39.125 57.2529 Q38.6035 56.7578 38.6035 56.002 Q38.6035 54.959 39.4795 54.3994 Q40.3555 53.8398 41.9902 53.8398 L42.2656 53.8398 L42.2656 53.0723 Q42.2656 51.9648 41.1289 51.9648 Q40.2148 51.9648 39.1543 52.5273 L39.1543 51.5723 Q40.3203 51.0977 41.3398 51.0977 Q42.4062 51.0977 42.9131 51.5781 Q43.4199 52.0586 43.4199 53.0723 L43.4199 55.9551 Q43.4199 56.9453 44.0293 56.9453 Q44.1055 56.9453 44.252 56.9219 L44.334 57.5605 Q43.9414 57.748 43.4668 57.748 Q42.6582 57.748 42.4355 56.793 ZM42.2656 56.166 L42.2656 54.5195 L41.8789 54.5078 Q40.9297 54.5078 40.3438 54.8682 Q39.7578 55.2285 39.7578 55.8145 Q39.7578 56.2305 40.0508 56.5176 Q40.3438 56.8047 40.7656 56.8047 Q41.4863 56.8047 42.2656 56.166 ZM48.0645 57.748 Q47.1855 57.748 46.6934 57.2441 Q46.2012 56.7402 46.2012 55.8438 L46.2012 52.1055 L45.4043 52.1055 L45.4043 51.2383 L46.2012 51.2383 L46.2012 50.084 L47.3555 49.9727 L47.3555 51.2383 L49.0195 51.2383 L49.0195 52.1055 L47.3555 52.1055 L47.3555 55.6328 Q47.3555 56.8809 48.4336 56.8809 Q48.6621 56.8809 48.9902 56.8047 L48.9902 57.6016 Q48.457 57.748 48.0645 57.748 ZM54.1328 57.6016 L54.1328 56.4062 Q53.2129 57.748 51.9004 57.748 Q51.0684 57.748 50.5762 57.2236 Q50.084 56.6992 50.084 55.8086 L50.084 51.2383 L51.2383 51.2383 L51.2383 55.4336 Q51.2383 56.1484 51.4463 56.4502 Q51.6543 56.752 52.1406 56.752 Q53.1953 56.752 54.1328 55.3633 L54.1328 51.2383 L55.2871 51.2383 L55.2871 57.6016 ZM57.1543 57.6016 L57.1543 51.2383 L58.3086 51.2383 L58.3086 52.4336 Q59.1523 51.0977 60.4766 51.0977 Q61.7539 51.0977 62.2168 52.4336 Q63.0371 51.0918 64.3496 51.0918 Q65.1934 51.0918 65.6562 51.5869 Q66.1191 52.082 66.1191 52.9727 L66.1191 57.6016 L64.959 57.6016 L64.959 53.1543 Q64.959 52.0645 64.0977 52.0645 Q63.2012 52.0645 62.2168 53.3359 L62.2168 57.6016 L61.0566 57.6016 L61.0566 53.1543 Q61.0566 52.0586 60.1777 52.0586 Q59.3047 52.0586 58.3086 53.3359 L58.3086 57.6016 ZM75.4355 56.793 Q74.3984 57.748 73.4375 57.748 Q72.6465 57.748 72.125 57.2529 Q71.6035 56.7578 71.6035 56.002 Q71.6035 54.959 72.4795 54.3994 Q73.3555 53.8398 74.9902 53.8398 L75.2656 53.8398 L75.2656 53.0723 Q75.2656 51.9648 74.1289 51.9648 Q73.2148 51.9648 72.1543 52.5273 L72.1543 51.5723 Q73.3203 51.0977 74.3398 51.0977 Q75.4062 51.0977 75.9131 51.5781 Q76.4199 52.0586 76.4199 53.0723 L76.4199 55.9551 Q76.4199 56.9453 77.0293 56.9453 Q77.1055 56.9453 77.252 56.9219 L77.334 57.5605 Q76.9414 57.748 76.4668 57.748 Q75.6582 57.748 75.4355 56.793 ZM75.2656 56.166 L75.2656 54.5195 L74.8789 54.5078 Q73.9297 54.5078 73.3438 54.8682 Q72.7578 55.2285 72.7578 55.8145 Q72.7578 56.2305 73.0508 56.5176 Q73.3438 56.8047 73.7656 56.8047 Q74.4863 56.8047 75.2656 56.166 ZM83.1328 57.6016 L83.1328 56.4062 Q82.2129 57.748 80.9004 57.748 Q80.0684 57.748 79.5762 57.2236 Q79.084 56.6992 79.084 55.8086 L79.084 51.2383 L80.2383 51.2383 L80.2383 55.4336 Q80.2383 56.1484 80.4463 56.4502 Q80.6543 56.752 81.1406 56.752 Q82.1953 56.752 83.1328 55.3633 L83.1328 51.2383 L84.2871 51.2383 L84.2871 57.6016 ZM88.6387 57.748 Q87.3496 57.748 86.5 56.793 Q85.6504 55.8379 85.6504 54.3848 Q85.6504 52.832 86.4912 51.9648 Q87.332 51.0977 88.8379 51.0977 Q89.582 51.0977 90.502 51.3027 L90.502 52.2695 Q89.5234 51.9824 88.9082 51.9824 Q88.0234 51.9824 87.4873 52.6475 Q86.9512 53.3125 86.9512 54.4199 Q86.9512 55.4922 87.502 56.1543 Q88.0527 56.8164 88.9434 56.8164 Q89.7344 56.8164 90.5723 56.4121 L90.5723 57.4082 Q89.4531 57.748 88.6387 57.748 ZM92.1543 57.6016 L92.1543 48.3496 L93.3086 48.3496 L93.3086 52.4336 Q94.2227 51.0977 95.5469 51.0977 Q96.373 51.0977 96.8652 51.6221 Q97.3574 52.1465 97.3574 53.0312 L97.3574 57.6016 L96.2031 57.6016 L96.2031 53.4062 Q96.2031 52.6973 95.9951 52.3955 Q95.7871 52.0938 95.3066 52.0938 Q94.2461 52.0938 93.3086 53.4824 L93.3086 57.6016 ZM103.8926 57.6016 L102.0703 51.2383 L103.2012 51.2383 L104.5957 56.166 L106.1016 51.2383 L107.2559 51.2383 L108.5742 56.166 L110.1738 51.2383 L111.1641 51.2383 L109.0898 57.6016 L107.9297 57.6016 L106.582 52.6738 L105.0586 57.6016 ZM112.1543 57.6016 L112.1543 51.2383 L113.3086 51.2383 L113.3086 57.6016 ZM112.1543 50.084 L112.1543 48.9297 L113.3086 48.9297 L113.3086 50.084 ZM115.1543 57.6016 L115.1543 51.2383 L116.3086 51.2383 L116.3086 52.4336 Q116.9941 51.0977 118.3008 51.0977 Q118.4766 51.0977 118.6699 51.127 L118.6699 52.2051 Q118.3711 52.1055 118.1426 52.1055 Q117.0469 52.1055 116.3086 53.4062 L116.3086 57.6016 ZM120.1543 57.6016 L120.1543 48.3496 L121.3086 48.3496 L121.3086 54.3262 L124.0039 51.2383 L125.2461 51.2383 L122.6738 54.209 L125.7793 57.6016 L124.3027 57.6016 L121.3086 54.3379 L121.3086 57.6016 ZM127.1543 57.6016 L127.1543 48.3496 L128.3086 48.3496 L128.3086 57.6016 ZM130.1543 57.6016 L130.1543 51.2383 L131.3086 51.2383 L131.3086 57.6016 ZM130.1543 50.084 L130.1543 48.9297 L131.3086 48.9297 L131.3086 50.084 ZM135.6387 57.748 Q134.3496 57.748 133.5 56.793 Q132.6504 55.8379 132.6504 54.3848 Q132.6504 52.832 133.4912 51.9648 Q134.332 51.0977 135.8379 51.0977 Q136.582 51.0977 137.502 51.3027 L137.502 52.2695 Q136.5234 51.9824 135.9082 51.9824 Q135.0234 51.9824 134.4873 52.6475 Q133.9512 53.3125 133.9512 54.4199 Q133.9512 55.4922 134.502 56.1543 Q135.0527 56.8164 135.9434 56.8164 Q136.7344 56.8164 137.5723 56.4121 L137.5723 57.4082 Q136.4531 57.748 135.6387 57.748 ZM139.1543 57.6016 L139.1543 48.3496 L140.3086 48.3496 L140.3086 52.4336 Q141.2227 51.0977 142.5469 51.0977 Q143.373 51.0977 143.8652 51.6221 Q144.3574 52.1465 144.3574 53.0312 L144.3574 57.6016 L143.2031 57.6016 L143.2031 53.4062 Q143.2031 52.6973 142.9951 52.3955 Q142.7871 52.0938 142.3066 52.0938 Q141.2461 52.0938 140.3086 53.4824 L140.3086 57.6016 ZM154.8184 57.3965 Q153.6582 57.748 152.832 57.748 Q151.4258 57.748 150.5381 56.8135 Q149.6504 55.8789 149.6504 54.3906 Q149.6504 52.9434 150.4326 52.0176 Q151.2148 51.0918 152.4336 51.0918 Q153.5879 51.0918 154.2178 51.9121 Q154.8477 52.7324 154.8477 54.2441 L154.8418 54.6016 L150.8281 54.6016 Q151.0801 56.8691 153.0488 56.8691 Q153.7695 56.8691 154.8184 56.4824 ZM150.8809 53.7344 L153.6875 53.7344 Q153.6875 51.959 152.3633 51.959 Q151.0332 51.959 150.8809 53.7344 ZM157.1543 57.6016 L157.1543 51.2383 L158.3086 51.2383 L158.3086 57.6016 ZM157.1543 50.084 L157.1543 48.9297 L158.3086 48.9297 L158.3086 50.084 ZM160.1543 57.6016 L160.1543 51.2383 L161.3086 51.2383 L161.3086 52.4336 Q162.2227 51.0977 163.5469 51.0977 Q164.373 51.0977 164.8652 51.6221 Q165.3574 52.1465 165.3574 53.0312 L165.3574 57.6016 L164.2031 57.6016 L164.2031 53.4062 Q164.2031 52.6973 163.9951 52.3955 Q163.7871 52.0938 163.3066 52.0938 Q162.2461 52.0938 161.3086 53.4824 L161.3086 57.6016 ZM172.4727 57.6016 L170.1055 51.2383 L171.2598 51.2383 L173.1113 56.1895 L175.0625 51.2383 L176.1406 51.2383 L173.627 57.6016 ZM180.4355 56.793 Q179.3984 57.748 178.4375 57.748 Q177.6465 57.748 177.125 57.2529 Q176.6035 56.7578 176.6035 56.002 Q176.6035 54.959 177.4795 54.3994 Q178.3555 53.8398 179.9902 53.8398 L180.2656 53.8398 L180.2656 53.0723 Q180.2656 51.9648 179.1289 51.9648 Q178.2148 51.9648 177.1543 52.5273 L177.1543 51.5723 Q178.3203 51.0977 179.3398 51.0977 Q180.4062 51.0977 180.9131 51.5781 Q181.4199 52.0586 181.4199 53.0723 L181.4199 55.9551 Q181.4199 56.9453 182.0293 56.9453 Q182.1055 56.9453 182.252 56.9219 L182.334 57.5605 Q181.9414 57.748 181.4668 57.748 Q180.6582 57.748 180.4355 56.793 ZM180.2656 56.166 L180.2656 54.5195 L179.8789 54.5078 Q178.9297 54.5078 178.3438 54.8682 Q177.7578 55.2285 177.7578 55.8145 Q177.7578 56.2305 178.0508 56.5176 Q178.3438 56.8047 178.7656 56.8047 Q179.4863 56.8047 180.2656 56.166 ZM184.1543 57.6016 L184.1543 48.3496 L185.3086 48.3496 L185.3086 57.6016 ZM187.1543 57.6016 L187.1543 51.2383 L188.3086 51.2383 L188.3086 57.6016 ZM187.1543 50.084 L187.1543 48.9297 L188.3086 48.9297 L188.3086 50.084 ZM194.2383 57.6016 L194.2383 56.4062 Q193.5352 57.748 192.1172 57.748 Q190.9688 57.748 190.3096 56.9102 Q189.6504 56.0723 189.6504 54.6191 Q189.6504 53.0312 190.3975 52.0645 Q191.1445 51.0977 192.3633 51.0977 Q193.4941 51.0977 194.2383 51.9648 L194.2383 48.3496 L195.3984 48.3496 L195.3984 57.6016 ZM194.2383 52.7559 Q193.3418 51.9648 192.5391 51.9648 Q190.8809 51.9648 190.8809 54.502 Q190.8809 56.7344 192.3574 56.7344 Q193.3184 56.7344 194.2383 55.6855 ZM202.8184 57.3965 Q201.6582 57.748 200.832 57.748 Q199.4258 57.748 198.5381 56.8135 Q197.6504 55.8789 197.6504 54.3906 Q197.6504 52.9434 198.4326 52.0176 Q199.2148 51.0918 200.4336 51.0918 Q201.5879 51.0918 202.2178 51.9121 Q202.8477 52.7324 202.8477 54.2441 L202.8418 54.6016 L198.8281 54.6016 Q199.0801 56.8691 201.0488 56.8691 Q201.7695 56.8691 202.8184 56.4824 ZM198.8809 53.7344 L201.6875 53.7344 Q201.6875 51.959 200.3633 51.959 Q199.0332 51.959 198.8809 53.7344 ZM206.8418 57.748 Q206.0508 57.748 204.9199 57.3789 L204.9199 56.3184 Q206.0508 56.8809 206.8887 56.8809 Q207.3867 56.8809 207.7148 56.6113 Q208.043 56.3418 208.043 55.9375 Q208.043 55.3457 207.123 54.959 L206.4492 54.6719 Q204.9551 54.0508 204.9551 52.8848 Q204.9551 52.0527 205.5439 51.5752 Q206.1328 51.0977 207.1582 51.0977 Q207.6914 51.0977 208.4766 51.2441 L208.7168 51.291 L208.7168 52.252 Q207.75 51.9648 207.1816 51.9648 Q206.0684 51.9648 206.0684 52.7734 Q206.0684 53.2949 206.9121 53.6523 L207.4688 53.8867 Q208.4121 54.2852 208.8047 54.7275 Q209.1973 55.1699 209.1973 55.832 Q209.1973 56.6699 208.5352 57.209 Q207.873 57.748 206.8418 57.748 Z"
                stroke="none" clip-path="url(#clipPath13)" />
            <path
                d="M4.1191 71.6016 L4.1191 62.9297 L7.002 62.9297 Q8.291 62.9297 9.085 63.2168 Q9.8789 63.5039 10.459 64.1895 Q11.3789 65.2793 11.3789 67.0605 Q11.3789 69.2227 10.2363 70.4121 Q9.0938 71.6016 7.0195 71.6016 ZM5.3496 70.6816 L6.9258 70.6816 Q8.6133 70.6816 9.3164 69.7734 Q10.0723 68.8066 10.0723 67.1777 Q10.0723 65.6484 9.3281 64.7754 Q8.877 64.2422 8.25 64.0459 Q7.623 63.8496 6.3633 63.8496 L5.3496 63.8496 ZM16.4355 70.793 Q15.3984 71.748 14.4375 71.748 Q13.6465 71.748 13.125 71.2529 Q12.6035 70.7578 12.6035 70.002 Q12.6035 68.959 13.4795 68.3994 Q14.3555 67.8398 15.9902 67.8398 L16.2656 67.8398 L16.2656 67.0723 Q16.2656 65.9648 15.1289 65.9648 Q14.2148 65.9648 13.1543 66.5273 L13.1543 65.5723 Q14.3203 65.0977 15.3398 65.0977 Q16.4062 65.0977 16.9131 65.5781 Q17.4199 66.0586 17.4199 67.0723 L17.4199 69.9551 Q17.4199 70.9453 18.0293 70.9453 Q18.1055 70.9453 18.252 70.9219 L18.334 71.5605 Q17.9414 71.748 17.4668 71.748 Q16.6582 71.748 16.4355 70.793 ZM16.2656 70.166 L16.2656 68.5195 L15.8789 68.5078 Q14.9297 68.5078 14.3438 68.8682 Q13.7578 69.2285 13.7578 69.8145 Q13.7578 70.2305 14.0508 70.5176 Q14.3438 70.8047 14.7656 70.8047 Q15.4863 70.8047 16.2656 70.166 ZM22.0645 71.748 Q21.1855 71.748 20.6934 71.2441 Q20.2012 70.7402 20.2012 69.8438 L20.2012 66.1055 L19.4043 66.1055 L19.4043 65.2383 L20.2012 65.2383 L20.2012 64.084 L21.3555 63.9727 L21.3555 65.2383 L23.0195 65.2383 L23.0195 66.1055 L21.3555 66.1055 L21.3555 69.6328 Q21.3555 70.8809 22.4336 70.8809 Q22.6621 70.8809 22.9902 70.8047 L22.9902 71.6016 Q22.457 71.748 22.0645 71.748 ZM28.1328 71.6016 L28.1328 70.4062 Q27.2129 71.748 25.9004 71.748 Q25.0684 71.748 24.5762 71.2236 Q24.084 70.6992 24.084 69.8086 L24.084 65.2383 L25.2383 65.2383 L25.2383 69.4336 Q25.2383 70.1484 25.4463 70.4502 Q25.6543 70.752 26.1406 70.752 Q27.1953 70.752 28.1328 69.3633 L28.1328 65.2383 L29.2871 65.2383 L29.2871 71.6016 ZM31.1543 71.6016 L31.1543 65.2383 L32.3086 65.2383 L32.3086 66.4336 Q33.1523 65.0977 34.4766 65.0977 Q35.7539 65.0977 36.2168 66.4336 Q37.0371 65.0918 38.3496 65.0918 Q39.1934 65.0918 39.6562 65.5869 Q40.1191 66.082 40.1191 66.9727 L40.1191 71.6016 L38.959 71.6016 L38.959 67.1543 Q38.959 66.0645 38.0977 66.0645 Q37.2012 66.0645 36.2168 67.3359 L36.2168 71.6016 L35.0566 71.6016 L35.0566 67.1543 Q35.0566 66.0586 34.1777 66.0586 Q33.3047 66.0586 32.3086 67.3359 L32.3086 71.6016 ZM47.8418 71.748 Q47.0508 71.748 45.9199 71.3789 L45.9199 70.3184 Q47.0508 70.8809 47.8887 70.8809 Q48.3867 70.8809 48.7148 70.6113 Q49.043 70.3418 49.043 69.9375 Q49.043 69.3457 48.123 68.959 L47.4492 68.6719 Q45.9551 68.0508 45.9551 66.8848 Q45.9551 66.0527 46.5439 65.5752 Q47.1328 65.0977 48.1582 65.0977 Q48.6914 65.0977 49.4766 65.2441 L49.7168 65.291 L49.7168 66.252 Q48.75 65.9648 48.1816 65.9648 Q47.0684 65.9648 47.0684 66.7734 Q47.0684 67.2949 47.9121 67.6523 L48.4688 67.8867 Q49.4121 68.2852 49.8047 68.7275 Q50.1973 69.1699 50.1973 69.832 Q50.1973 70.6699 49.5352 71.209 Q48.873 71.748 47.8418 71.748 ZM54.0645 71.748 Q53.1855 71.748 52.6934 71.2441 Q52.2012 70.7402 52.2012 69.8438 L52.2012 66.1055 L51.4043 66.1055 L51.4043 65.2383 L52.2012 65.2383 L52.2012 64.084 L53.3555 63.9727 L53.3555 65.2383 L55.0195 65.2383 L55.0195 66.1055 L53.3555 66.1055 L53.3555 69.6328 Q53.3555 70.8809 54.4336 70.8809 Q54.6621 70.8809 54.9902 70.8047 L54.9902 71.6016 Q54.457 71.748 54.0645 71.748 ZM60.8184 71.3965 Q59.6582 71.748 58.832 71.748 Q57.4258 71.748 56.5381 70.8135 Q55.6504 69.8789 55.6504 68.3906 Q55.6504 66.9434 56.4326 66.0176 Q57.2148 65.0918 58.4336 65.0918 Q59.5879 65.0918 60.2178 65.9121 Q60.8477 66.7324 60.8477 68.2441 L60.8418 68.6016 L56.8281 68.6016 Q57.0801 70.8691 59.0488 70.8691 Q59.7695 70.8691 60.8184 70.4824 ZM56.8809 67.7344 L59.6875 67.7344 Q59.6875 65.959 58.3633 65.959 Q57.0332 65.959 56.8809 67.7344 ZM63.1543 71.6016 L63.1543 62.3496 L64.3086 62.3496 L64.3086 66.4336 Q65.2227 65.0977 66.5469 65.0977 Q67.373 65.0977 67.8652 65.6221 Q68.3574 66.1465 68.3574 67.0312 L68.3574 71.6016 L67.2031 71.6016 L67.2031 67.4062 Q67.2031 66.6973 66.9951 66.3955 Q66.7871 66.0938 66.3066 66.0938 Q65.2461 66.0938 64.3086 67.4824 L64.3086 71.6016 ZM72.0645 71.748 Q71.1855 71.748 70.6934 71.2441 Q70.2012 70.7402 70.2012 69.8438 L70.2012 66.1055 L69.4043 66.1055 L69.4043 65.2383 L70.2012 65.2383 L70.2012 64.084 L71.3555 63.9727 L71.3555 65.2383 L73.0195 65.2383 L73.0195 66.1055 L71.3555 66.1055 L71.3555 69.6328 Q71.3555 70.8809 72.4336 70.8809 Q72.6621 70.8809 72.9902 70.8047 L72.9902 71.6016 Q72.457 71.748 72.0645 71.748 ZM73.4336 72.5391 L73.4336 73.3359 Q74.6992 72.4746 75.4404 70.9951 Q76.1816 69.5156 76.1816 67.8398 Q76.1816 66.1699 75.4404 64.6904 Q74.6992 63.2109 73.4336 62.3496 L73.4336 63.1465 Q74.2949 64.084 74.6611 65.1621 Q75.0273 66.2402 75.0273 67.8398 Q75.0273 69.4453 74.6611 70.5234 Q74.2949 71.6016 73.4336 72.5391 ZM86.1328 71.6016 L86.1328 70.4062 Q85.2129 71.748 83.9004 71.748 Q83.0684 71.748 82.5762 71.2236 Q82.084 70.6992 82.084 69.8086 L82.084 65.2383 L83.2383 65.2383 L83.2383 69.4336 Q83.2383 70.1484 83.4463 70.4502 Q83.6543 70.752 84.1406 70.752 Q85.1953 70.752 86.1328 69.3633 L86.1328 65.2383 L87.2871 65.2383 L87.2871 71.6016 ZM89.1543 71.6016 L89.1543 65.2383 L90.3086 65.2383 L90.3086 66.4336 Q91.2227 65.0977 92.5469 65.0977 Q93.373 65.0977 93.8652 65.6221 Q94.3574 66.1465 94.3574 67.0312 L94.3574 71.6016 L93.2031 71.6016 L93.2031 67.4062 Q93.2031 66.6973 92.9951 66.3955 Q92.7871 66.0938 92.3066 66.0938 Q91.2461 66.0938 90.3086 67.4824 L90.3086 71.6016 ZM100.2383 71.6016 L100.2383 70.4062 Q99.5352 71.748 98.1172 71.748 Q96.9688 71.748 96.3096 70.9102 Q95.6504 70.0723 95.6504 68.6191 Q95.6504 67.0312 96.3975 66.0645 Q97.1445 65.0977 98.3633 65.0977 Q99.4941 65.0977 100.2383 65.9648 L100.2383 62.3496 L101.3984 62.3496 L101.3984 71.6016 ZM100.2383 66.7559 Q99.3418 65.9648 98.5391 65.9648 Q96.8809 65.9648 96.8809 68.502 Q96.8809 70.7344 98.3574 70.7344 Q99.3184 70.7344 100.2383 69.6855 ZM111.4355 70.793 Q110.3984 71.748 109.4375 71.748 Q108.6465 71.748 108.125 71.2529 Q107.6035 70.7578 107.6035 70.002 Q107.6035 68.959 108.4795 68.3994 Q109.3555 67.8398 110.9902 67.8398 L111.2656 67.8398 L111.2656 67.0723 Q111.2656 65.9648 110.1289 65.9648 Q109.2148 65.9648 108.1543 66.5273 L108.1543 65.5723 Q109.3203 65.0977 110.3398 65.0977 Q111.4062 65.0977 111.9131 65.5781 Q112.4199 66.0586 112.4199 67.0723 L112.4199 69.9551 Q112.4199 70.9453 113.0293 70.9453 Q113.1055 70.9453 113.252 70.9219 L113.334 71.5605 Q112.9414 71.748 112.4668 71.748 Q111.6582 71.748 111.4355 70.793 ZM111.2656 70.166 L111.2656 68.5195 L110.8789 68.5078 Q109.9297 68.5078 109.3438 68.8682 Q108.7578 69.2285 108.7578 69.8145 Q108.7578 70.2305 109.0508 70.5176 Q109.3438 70.8047 109.7656 70.8047 Q110.4863 70.8047 111.2656 70.166 ZM115.1543 71.6016 L115.1543 65.2383 L116.3086 65.2383 L116.3086 66.4336 Q117.2227 65.0977 118.5469 65.0977 Q119.373 65.0977 119.8652 65.6221 Q120.3574 66.1465 120.3574 67.0312 L120.3574 71.6016 L119.2031 71.6016 L119.2031 67.4062 Q119.2031 66.6973 118.9951 66.3955 Q118.7871 66.0938 118.3066 66.0938 Q117.2461 66.0938 116.3086 67.4824 L116.3086 71.6016 ZM123.8418 71.748 Q123.0508 71.748 121.9199 71.3789 L121.9199 70.3184 Q123.0508 70.8809 123.8887 70.8809 Q124.3867 70.8809 124.7148 70.6113 Q125.043 70.3418 125.043 69.9375 Q125.043 69.3457 124.123 68.959 L123.4492 68.6719 Q121.9551 68.0508 121.9551 66.8848 Q121.9551 66.0527 122.5439 65.5752 Q123.1328 65.0977 124.1582 65.0977 Q124.6914 65.0977 125.4766 65.2441 L125.7168 65.291 L125.7168 66.252 Q124.75 65.9648 124.1816 65.9648 Q123.0684 65.9648 123.0684 66.7734 Q123.0684 67.2949 123.9121 67.6523 L124.4688 67.8867 Q125.4121 68.2852 125.8047 68.7275 Q126.1973 69.1699 126.1973 69.832 Q126.1973 70.6699 125.5352 71.209 Q124.873 71.748 123.8418 71.748 ZM130.6387 71.748 Q129.3496 71.748 128.5 70.793 Q127.6504 69.8379 127.6504 68.3848 Q127.6504 66.832 128.4912 65.9648 Q129.332 65.0977 130.8379 65.0977 Q131.582 65.0977 132.502 65.3027 L132.502 66.2695 Q131.5234 65.9824 130.9082 65.9824 Q130.0234 65.9824 129.4873 66.6475 Q128.9512 67.3125 128.9512 68.4199 Q128.9512 69.4922 129.502 70.1543 Q130.0527 70.8164 130.9434 70.8164 Q131.7344 70.8164 132.5723 70.4121 L132.5723 71.4082 Q131.4531 71.748 130.6387 71.748 ZM134.1543 71.6016 L134.1543 62.3496 L135.3086 62.3496 L135.3086 66.4336 Q136.2227 65.0977 137.5469 65.0977 Q138.373 65.0977 138.8652 65.6221 Q139.3574 66.1465 139.3574 67.0312 L139.3574 71.6016 L138.2031 71.6016 L138.2031 67.4062 Q138.2031 66.6973 137.9951 66.3955 Q137.7871 66.0938 137.3066 66.0938 Q136.2461 66.0938 135.3086 67.4824 L135.3086 71.6016 ZM141.1543 71.6016 L141.1543 62.3496 L142.3086 62.3496 L142.3086 71.6016 ZM144.1543 71.6016 L144.1543 65.2383 L145.3086 65.2383 L145.3086 71.6016 ZM144.1543 64.084 L144.1543 62.9297 L145.3086 62.9297 L145.3086 64.084 ZM151.8184 71.3965 Q150.6582 71.748 149.832 71.748 Q148.4258 71.748 147.5381 70.8135 Q146.6504 69.8789 146.6504 68.3906 Q146.6504 66.9434 147.4326 66.0176 Q148.2148 65.0918 149.4336 65.0918 Q150.5879 65.0918 151.2178 65.9121 Q151.8477 66.7324 151.8477 68.2441 L151.8418 68.6016 L147.8281 68.6016 Q148.0801 70.8691 150.0488 70.8691 Q150.7695 70.8691 151.8184 70.4824 ZM147.8809 67.7344 L150.6875 67.7344 Q150.6875 65.959 149.3633 65.959 Q148.0332 65.959 147.8809 67.7344 ZM154.1543 71.6016 L154.1543 64.8574 Q154.1543 63.4043 154.6465 62.8037 Q155.1387 62.2031 156.3223 62.2031 Q157.2773 62.2031 157.8574 62.6279 Q158.4375 63.0527 158.4375 63.75 Q158.4375 64.4648 157.6699 65.4785 Q157.2188 66.0703 157.2188 66.3105 Q157.2188 66.6621 157.8633 67.2129 L158.8066 68.0098 Q159.8203 68.8652 159.8203 69.8496 Q159.8203 70.7285 159.2695 71.2383 Q158.7188 71.748 157.7695 71.748 Q156.9551 71.748 156.1289 71.4082 L156.1289 70.418 Q157.2012 70.8809 157.7871 70.8809 Q158.2148 70.8809 158.4727 70.6289 Q158.7305 70.377 158.7305 69.9551 Q158.7305 69.4512 158.0566 68.877 L156.9375 67.916 Q156.2051 67.2832 156.2051 66.6328 Q156.2051 66.1406 156.791 65.2383 Q157.2773 64.4941 157.2773 63.9609 Q157.2773 63.5156 157.0283 63.293 Q156.7793 63.0703 156.2812 63.0703 Q155.7949 63.0703 155.5518 63.3955 Q155.3086 63.7207 155.3086 64.3711 L155.3086 71.6016 ZM165.8184 71.3965 Q164.6582 71.748 163.832 71.748 Q162.4258 71.748 161.5381 70.8135 Q160.6504 69.8789 160.6504 68.3906 Q160.6504 66.9434 161.4326 66.0176 Q162.2148 65.0918 163.4336 65.0918 Q164.5879 65.0918 165.2178 65.9121 Q165.8477 66.7324 165.8477 68.2441 L165.8418 68.6016 L161.8281 68.6016 Q162.0801 70.8691 164.0488 70.8691 Q164.7695 70.8691 165.8184 70.4824 ZM161.8809 67.7344 L164.6875 67.7344 Q164.6875 65.959 163.3633 65.959 Q162.0332 65.959 161.8809 67.7344 ZM168.1543 71.6016 L168.1543 65.2383 L169.3086 65.2383 L169.3086 66.4336 Q170.2227 65.0977 171.5469 65.0977 Q172.373 65.0977 172.8652 65.6221 Q173.3574 66.1465 173.3574 67.0312 L173.3574 71.6016 L172.2031 71.6016 L172.2031 67.4062 Q172.2031 66.6973 171.9951 66.3955 Q171.7871 66.0938 171.3066 66.0938 Q170.2461 66.0938 169.3086 67.4824 L169.3086 71.6016 ZM179.2383 71.6016 L179.2383 70.4062 Q178.5352 71.748 177.1172 71.748 Q175.9688 71.748 175.3096 70.9102 Q174.6504 70.0723 174.6504 68.6191 Q174.6504 67.0312 175.3975 66.0645 Q176.1445 65.0977 177.3633 65.0977 Q178.4941 65.0977 179.2383 65.9648 L179.2383 62.3496 L180.3984 62.3496 L180.3984 71.6016 ZM179.2383 66.7559 Q178.3418 65.9648 177.5391 65.9648 Q175.8809 65.9648 175.8809 68.502 Q175.8809 70.7344 177.3574 70.7344 Q178.3184 70.7344 179.2383 69.6855 ZM187.1543 71.6016 L187.1543 65.2383 L188.3086 65.2383 L188.3086 66.4336 Q189.1523 65.0977 190.4766 65.0977 Q191.7539 65.0977 192.2168 66.4336 Q193.0371 65.0918 194.3496 65.0918 Q195.1934 65.0918 195.6562 65.5869 Q196.1191 66.082 196.1191 66.9727 L196.1191 71.6016 L194.959 71.6016 L194.959 67.1543 Q194.959 66.0645 194.0977 66.0645 Q193.2012 66.0645 192.2168 67.3359 L192.2168 71.6016 L191.0566 71.6016 L191.0566 67.1543 Q191.0566 66.0586 190.1777 66.0586 Q189.3047 66.0586 188.3086 67.3359 L188.3086 71.6016 ZM202.1328 71.6016 L202.1328 70.4062 Q201.2129 71.748 199.9004 71.748 Q199.0684 71.748 198.5762 71.2236 Q198.084 70.6992 198.084 69.8086 L198.084 65.2383 L199.2383 65.2383 L199.2383 69.4336 Q199.2383 70.1484 199.4463 70.4502 Q199.6543 70.752 200.1406 70.752 Q201.1953 70.752 202.1328 69.3633 L202.1328 65.2383 L203.2871 65.2383 L203.2871 71.6016 ZM206.8418 71.748 Q206.0508 71.748 204.9199 71.3789 L204.9199 70.3184 Q206.0508 70.8809 206.8887 70.8809 Q207.3867 70.8809 207.7148 70.6113 Q208.043 70.3418 208.043 69.9375 Q208.043 69.3457 207.123 68.959 L206.4492 68.6719 Q204.9551 68.0508 204.9551 66.8848 Q204.9551 66.0527 205.5439 65.5752 Q206.1328 65.0977 207.1582 65.0977 Q207.6914 65.0977 208.4766 65.2441 L208.7168 65.291 L208.7168 66.252 Q207.75 65.9648 207.1816 65.9648 Q206.0684 65.9648 206.0684 66.7734 Q206.0684 67.2949 206.9121 67.6523 L207.4688 67.8867 Q208.4121 68.2852 208.8047 68.7275 Q209.1973 69.1699 209.1973 69.832 Q209.1973 70.6699 208.5352 71.209 Q207.873 71.748 206.8418 71.748 ZM212.8418 71.748 Q212.0508 71.748 210.9199 71.3789 L210.9199 70.3184 Q212.0508 70.8809 212.8887 70.8809 Q213.3867 70.8809 213.7148 70.6113 Q214.043 70.3418 214.043 69.9375 Q214.043 69.3457 213.123 68.959 L212.4492 68.6719 Q210.9551 68.0508 210.9551 66.8848 Q210.9551 66.0527 211.5439 65.5752 Q212.1328 65.0977 213.1582 65.0977 Q213.6914 65.0977 214.4766 65.2441 L214.7168 65.291 L214.7168 66.252 Q213.75 65.9648 213.1816 65.9648 Q212.0684 65.9648 212.0684 66.7734 Q212.0684 67.2949 212.9121 67.6523 L213.4688 67.8867 Q214.4121 68.2852 214.8047 68.7275 Q215.1973 69.1699 215.1973 69.832 Q215.1973 70.6699 214.5352 71.209 Q213.873 71.748 212.8418 71.748 Z"
                stroke="none" clip-path="url(#clipPath13)" />
            <path
                d="M8.2383 85.6016 L8.2383 84.4062 Q7.5352 85.748 6.1172 85.748 Q4.9688 85.748 4.3096 84.9102 Q3.6504 84.0723 3.6504 82.6191 Q3.6504 81.0312 4.3975 80.0645 Q5.1445 79.0977 6.3633 79.0977 Q7.4941 79.0977 8.2383 79.9648 L8.2383 76.3496 L9.3984 76.3496 L9.3984 85.6016 ZM8.2383 80.7559 Q7.3418 79.9648 6.5391 79.9648 Q4.8809 79.9648 4.8809 82.502 Q4.8809 84.7344 6.3574 84.7344 Q7.3184 84.7344 8.2383 83.6855 ZM16.8184 85.3965 Q15.6582 85.748 14.832 85.748 Q13.4258 85.748 12.5381 84.8135 Q11.6504 83.8789 11.6504 82.3906 Q11.6504 80.9434 12.4326 80.0176 Q13.2148 79.0918 14.4336 79.0918 Q15.5879 79.0918 16.2178 79.9121 Q16.8477 80.7324 16.8477 82.2441 L16.8418 82.6016 L12.8281 82.6016 Q13.0801 84.8691 15.0488 84.8691 Q15.7695 84.8691 16.8184 84.4824 ZM12.8809 81.7344 L15.6875 81.7344 Q15.6875 79.959 14.3633 79.959 Q13.0332 79.959 12.8809 81.7344 ZM19.1543 85.6016 L19.1543 79.2383 L20.3086 79.2383 L20.3086 80.4336 Q20.9941 79.0977 22.3008 79.0977 Q22.4766 79.0977 22.6699 79.127 L22.6699 80.2051 Q22.3711 80.1055 22.1426 80.1055 Q21.0469 80.1055 20.3086 81.4062 L20.3086 85.6016 ZM28.1191 85.6016 L28.1191 76.9297 L30.3691 76.9297 Q31.6699 76.9297 32.3643 77.4219 Q33.0586 77.9141 33.0586 78.8398 Q33.0586 80.416 31.2773 81.084 Q33.4043 81.7344 33.4043 83.4336 Q33.4043 84.4883 32.7012 85.0449 Q31.998 85.6016 30.6738 85.6016 ZM29.3379 84.6816 L29.5898 84.6816 Q30.9434 84.6816 31.3418 84.5117 Q32.1035 84.1895 32.1035 83.3164 Q32.1035 82.543 31.4121 82.0303 Q30.7207 81.5176 29.6836 81.5176 L29.3379 81.5176 ZM29.3379 80.7383 L29.7305 80.7383 Q30.7148 80.7383 31.2568 80.3164 Q31.7988 79.8945 31.7988 79.127 Q31.7988 77.8496 29.8184 77.8496 L29.3379 77.8496 ZM39.8184 85.3965 Q38.6582 85.748 37.832 85.748 Q36.4258 85.748 35.5381 84.8135 Q34.6504 83.8789 34.6504 82.3906 Q34.6504 80.9434 35.4326 80.0176 Q36.2148 79.0918 37.4336 79.0918 Q38.5879 79.0918 39.2178 79.9121 Q39.8477 80.7324 39.8477 82.2441 L39.8418 82.6016 L35.8281 82.6016 Q36.0801 84.8691 38.0488 84.8691 Q38.7695 84.8691 39.8184 84.4824 ZM35.8809 81.7344 L38.6875 81.7344 Q38.6875 79.959 37.3633 79.959 Q36.0332 79.959 35.8809 81.7344 ZM42.1543 85.6016 L42.1543 79.2383 L43.3086 79.2383 L43.3086 80.4336 Q44.2227 79.0977 45.5469 79.0977 Q46.373 79.0977 46.8652 79.6221 Q47.3574 80.1465 47.3574 81.0312 L47.3574 85.6016 L46.2031 85.6016 L46.2031 81.4062 Q46.2031 80.6973 45.9951 80.3955 Q45.7871 80.0938 45.3066 80.0938 Q44.2461 80.0938 43.3086 81.4824 L43.3086 85.6016 ZM53.1328 85.6016 L53.1328 84.4062 Q52.2129 85.748 50.9004 85.748 Q50.0684 85.748 49.5762 85.2236 Q49.084 84.6992 49.084 83.8086 L49.084 79.2383 L50.2383 79.2383 L50.2383 83.4336 Q50.2383 84.1484 50.4463 84.4502 Q50.6543 84.752 51.1406 84.752 Q52.1953 84.752 53.1328 83.3633 L53.1328 79.2383 L54.2871 79.2383 L54.2871 85.6016 ZM58.0645 85.748 Q57.1855 85.748 56.6934 85.2441 Q56.2012 84.7402 56.2012 83.8438 L56.2012 80.1055 L55.4043 80.1055 L55.4043 79.2383 L56.2012 79.2383 L56.2012 78.084 L57.3555 77.9727 L57.3555 79.2383 L59.0195 79.2383 L59.0195 80.1055 L57.3555 80.1055 L57.3555 83.6328 Q57.3555 84.8809 58.4336 84.8809 Q58.6621 84.8809 58.9902 84.8047 L58.9902 85.6016 Q58.457 85.748 58.0645 85.748 ZM59.7207 85.6016 L59.7207 84.7344 L63.6582 80.1055 L59.9023 80.1055 L59.9023 79.2383 L65.082 79.2383 L65.082 80.1055 L61.1445 84.7344 L65.1582 84.7344 L65.1582 85.6016 ZM71.8184 85.3965 Q70.6582 85.748 69.832 85.748 Q68.4258 85.748 67.5381 84.8135 Q66.6504 83.8789 66.6504 82.3906 Q66.6504 80.9434 67.4326 80.0176 Q68.2148 79.0918 69.4336 79.0918 Q70.5879 79.0918 71.2178 79.9121 Q71.8477 80.7324 71.8477 82.2441 L71.8418 82.6016 L67.8281 82.6016 Q68.0801 84.8691 70.0488 84.8691 Q70.7695 84.8691 71.8184 84.4824 ZM67.8809 81.7344 L70.6875 81.7344 Q70.6875 79.959 69.3633 79.959 Q68.0332 79.959 67.8809 81.7344 ZM74.1543 85.6016 L74.1543 79.2383 L75.3086 79.2383 L75.3086 80.4336 Q75.9941 79.0977 77.3008 79.0977 Q77.4766 79.0977 77.6699 79.127 L77.6699 80.2051 Q77.3711 80.1055 77.1426 80.1055 Q76.0469 80.1055 75.3086 81.4062 L75.3086 85.6016 ZM87.2383 85.6016 L87.2383 84.4062 Q86.5352 85.748 85.1172 85.748 Q83.9688 85.748 83.3096 84.9102 Q82.6504 84.0723 82.6504 82.6191 Q82.6504 81.0312 83.3975 80.0645 Q84.1445 79.0977 85.3633 79.0977 Q86.4941 79.0977 87.2383 79.9648 L87.2383 76.3496 L88.3984 76.3496 L88.3984 85.6016 ZM87.2383 80.7559 Q86.3418 79.9648 85.5391 79.9648 Q83.8809 79.9648 83.8809 82.502 Q83.8809 84.7344 85.3574 84.7344 Q86.3184 84.7344 87.2383 83.6855 ZM91.1543 85.6016 L91.1543 79.2383 L92.3086 79.2383 L92.3086 85.6016 ZM91.1543 78.084 L91.1543 76.9297 L92.3086 76.9297 L92.3086 78.084 ZM98.8184 85.3965 Q97.6582 85.748 96.832 85.748 Q95.4258 85.748 94.5381 84.8135 Q93.6504 83.8789 93.6504 82.3906 Q93.6504 80.9434 94.4326 80.0176 Q95.2148 79.0918 96.4336 79.0918 Q97.5879 79.0918 98.2178 79.9121 Q98.8477 80.7324 98.8477 82.2441 L98.8418 82.6016 L94.8281 82.6016 Q95.0801 84.8691 97.0488 84.8691 Q97.7695 84.8691 98.8184 84.4824 ZM94.8809 81.7344 L97.6875 81.7344 Q97.6875 79.959 96.3633 79.959 Q95.0332 79.959 94.8809 81.7344 ZM109.5137 82.2852 L108.0371 78.5469 L106.5547 82.2852 ZM110.8145 85.6016 L109.8711 83.1992 L106.1973 83.1992 L105.2422 85.6016 L104.0996 85.6016 L107.5391 76.9297 L108.7578 76.9297 L112.1445 85.6016 ZM106.4609 76.2031 L106.4609 75.1895 L107.4746 75.1895 L107.4746 76.2031 ZM108.7754 76.2031 L108.7754 75.1895 L109.7891 75.1895 L109.7891 76.2031 ZM113.1543 85.6016 L113.1543 79.2383 L114.3086 79.2383 L114.3086 80.4336 Q115.2227 79.0977 116.5469 79.0977 Q117.373 79.0977 117.8652 79.6221 Q118.3574 80.1465 118.3574 81.0312 L118.3574 85.6016 L117.2031 85.6016 L117.2031 81.4062 Q117.2031 80.6973 116.9951 80.3955 Q116.7871 80.0938 116.3066 80.0938 Q115.2461 80.0938 114.3086 81.4824 L114.3086 85.6016 ZM124.2383 85.6016 L124.2383 84.4062 Q123.5352 85.748 122.1172 85.748 Q120.9688 85.748 120.3096 84.9102 Q119.6504 84.0723 119.6504 82.6191 Q119.6504 81.0312 120.3975 80.0645 Q121.1445 79.0977 122.3633 79.0977 Q123.4941 79.0977 124.2383 79.9648 L124.2383 76.3496 L125.3984 76.3496 L125.3984 85.6016 ZM124.2383 80.7559 Q123.3418 79.9648 122.5391 79.9648 Q120.8809 79.9648 120.8809 82.502 Q120.8809 84.7344 122.3574 84.7344 Q123.3184 84.7344 124.2383 83.6855 ZM132.8184 85.3965 Q131.6582 85.748 130.832 85.748 Q129.4258 85.748 128.5381 84.8135 Q127.6504 83.8789 127.6504 82.3906 Q127.6504 80.9434 128.4326 80.0176 Q129.2148 79.0918 130.4336 79.0918 Q131.5879 79.0918 132.2178 79.9121 Q132.8477 80.7324 132.8477 82.2441 L132.8418 82.6016 L128.8281 82.6016 Q129.0801 84.8691 131.0488 84.8691 Q131.7695 84.8691 132.8184 84.4824 ZM128.8809 81.7344 L131.6875 81.7344 Q131.6875 79.959 130.3633 79.959 Q129.0332 79.959 128.8809 81.7344 ZM135.1543 85.6016 L135.1543 79.2383 L136.3086 79.2383 L136.3086 80.4336 Q136.9941 79.0977 138.3008 79.0977 Q138.4766 79.0977 138.6699 79.127 L138.6699 80.2051 Q138.3711 80.1055 138.1426 80.1055 Q137.0469 80.1055 136.3086 81.4062 L136.3086 85.6016 ZM144.1328 85.6016 L144.1328 84.4062 Q143.2129 85.748 141.9004 85.748 Q141.0684 85.748 140.5762 85.2236 Q140.084 84.6992 140.084 83.8086 L140.084 79.2383 L141.2383 79.2383 L141.2383 83.4336 Q141.2383 84.1484 141.4463 84.4502 Q141.6543 84.752 142.1406 84.752 Q143.1953 84.752 144.1328 83.3633 L144.1328 79.2383 L145.2871 79.2383 L145.2871 85.6016 ZM147.1543 85.6016 L147.1543 79.2383 L148.3086 79.2383 L148.3086 80.4336 Q149.2227 79.0977 150.5469 79.0977 Q151.373 79.0977 151.8652 79.6221 Q152.3574 80.1465 152.3574 81.0312 L152.3574 85.6016 L151.2031 85.6016 L151.2031 81.4062 Q151.2031 80.6973 150.9951 80.3955 Q150.7871 80.0938 150.3066 80.0938 Q149.2461 80.0938 148.3086 81.4824 L148.3086 85.6016 ZM154.1777 87.7168 L154.3125 86.7148 Q155.3145 87.1895 156.2871 87.1895 Q158.2383 87.1895 158.2383 85.1211 L158.2383 84.1191 Q157.5996 85.4551 156.1406 85.4551 Q154.998 85.4551 154.3242 84.623 Q153.6504 83.791 153.6504 82.3789 Q153.6504 80.9258 154.418 80.0117 Q155.1855 79.0977 156.4043 79.0977 Q157.4707 79.0977 158.2383 79.9648 L158.2383 79.2383 L159.3984 79.2383 L159.3984 83.8672 Q159.3984 85.3613 159.2432 86.0791 Q159.0879 86.7969 158.6602 87.2539 Q157.9043 88.0566 156.3105 88.0566 Q155.1973 88.0566 154.1777 87.7168 ZM158.2383 83.3984 L158.2383 80.7559 Q157.4766 79.9648 156.5801 79.9648 Q155.7832 79.9648 155.332 80.6035 Q154.8809 81.2422 154.8809 82.3555 Q154.8809 84.4473 156.3516 84.4473 Q157.3535 84.4473 158.2383 83.3984 ZM165.1543 85.6016 L165.1543 79.2383 L166.3086 79.2383 L166.3086 80.4336 Q166.9941 79.0977 168.3008 79.0977 Q168.4766 79.0977 168.6699 79.127 L168.6699 80.2051 Q168.3711 80.1055 168.1426 80.1055 Q167.0469 80.1055 166.3086 81.4062 L166.3086 85.6016 ZM174.8184 85.3965 Q173.6582 85.748 172.832 85.748 Q171.4258 85.748 170.5381 84.8135 Q169.6504 83.8789 169.6504 82.3906 Q169.6504 80.9434 170.4326 80.0176 Q171.2148 79.0918 172.4336 79.0918 Q173.5879 79.0918 174.2178 79.9121 Q174.8477 80.7324 174.8477 82.2441 L174.8418 82.6016 L170.8281 82.6016 Q171.0801 84.8691 173.0488 84.8691 Q173.7695 84.8691 174.8184 84.4824 ZM170.8809 81.7344 L173.6875 81.7344 Q173.6875 79.959 172.3633 79.959 Q171.0332 79.959 170.8809 81.7344 ZM178.4727 85.6016 L176.1055 79.2383 L177.2598 79.2383 L179.1113 84.1895 L181.0625 79.2383 L182.1406 79.2383 L179.627 85.6016 ZM183.1543 85.6016 L183.1543 79.2383 L184.3086 79.2383 L184.3086 85.6016 ZM183.1543 78.084 L183.1543 76.9297 L184.3086 76.9297 L184.3086 78.084 ZM190.8184 85.3965 Q189.6582 85.748 188.832 85.748 Q187.4258 85.748 186.5381 84.8135 Q185.6504 83.8789 185.6504 82.3906 Q185.6504 80.9434 186.4326 80.0176 Q187.2148 79.0918 188.4336 79.0918 Q189.5879 79.0918 190.2178 79.9121 Q190.8477 80.7324 190.8477 82.2441 L190.8418 82.6016 L186.8281 82.6016 Q187.0801 84.8691 189.0488 84.8691 Q189.7695 84.8691 190.8184 84.4824 ZM186.8809 81.7344 L189.6875 81.7344 Q189.6875 79.959 188.3633 79.959 Q187.0332 79.959 186.8809 81.7344 ZM193.8926 85.6016 L192.0703 79.2383 L193.2012 79.2383 L194.5957 84.166 L196.1016 79.2383 L197.2559 79.2383 L198.5742 84.166 L200.1738 79.2383 L201.1641 79.2383 L199.0898 85.6016 L197.9297 85.6016 L196.582 80.6738 L195.0586 85.6016 ZM206.8184 85.3965 Q205.6582 85.748 204.832 85.748 Q203.4258 85.748 202.5381 84.8135 Q201.6504 83.8789 201.6504 82.3906 Q201.6504 80.9434 202.4326 80.0176 Q203.2148 79.0918 204.4336 79.0918 Q205.5879 79.0918 206.2178 79.9121 Q206.8477 80.7324 206.8477 82.2441 L206.8418 82.6016 L202.8281 82.6016 Q203.0801 84.8691 205.0488 84.8691 Q205.7695 84.8691 206.8184 84.4824 ZM202.8809 81.7344 L205.6875 81.7344 Q205.6875 79.959 204.3633 79.959 Q203.0332 79.959 202.8809 81.7344 ZM209.1543 85.6016 L209.1543 79.2383 L210.3086 79.2383 L210.3086 80.4336 Q211.2227 79.0977 212.5469 79.0977 Q213.373 79.0977 213.8652 79.6221 Q214.3574 80.1465 214.3574 81.0312 L214.3574 85.6016 L213.2031 85.6016 L213.2031 81.4062 Q213.2031 80.6973 212.9951 80.3955 Q212.7871 80.0938 212.3066 80.0938 Q211.2461 80.0938 210.3086 81.4824 L210.3086 85.6016 Z"
                stroke="none" clip-path="url(#clipPath13)" />
            <path
                d="M8.1328 99.6016 L8.1328 98.4062 Q7.2129 99.748 5.9004 99.748 Q5.0684 99.748 4.5762 99.2236 Q4.084 98.6992 4.084 97.8086 L4.084 93.2383 L5.2383 93.2383 L5.2383 97.4336 Q5.2383 98.1484 5.4463 98.4502 Q5.6543 98.752 6.1406 98.752 Q7.1953 98.752 8.1328 97.3633 L8.1328 93.2383 L9.2871 93.2383 L9.2871 99.6016 ZM11.1543 99.6016 L11.1543 93.2383 L12.3086 93.2383 L12.3086 94.4336 Q13.2227 93.0977 14.5469 93.0977 Q15.373 93.0977 15.8652 93.6221 Q16.3574 94.1465 16.3574 95.0312 L16.3574 99.6016 L15.2031 99.6016 L15.2031 95.4062 Q15.2031 94.6973 14.9951 94.3955 Q14.7871 94.0938 14.3066 94.0938 Q13.2461 94.0938 12.3086 95.4824 L12.3086 99.6016 ZM22.2383 99.6016 L22.2383 98.4062 Q21.5352 99.748 20.1172 99.748 Q18.9688 99.748 18.3096 98.9102 Q17.6504 98.0723 17.6504 96.6191 Q17.6504 95.0312 18.3975 94.0645 Q19.1445 93.0977 20.3633 93.0977 Q21.4941 93.0977 22.2383 93.9648 L22.2383 90.3496 L23.3984 90.3496 L23.3984 99.6016 ZM22.2383 94.7559 Q21.3418 93.9648 20.5391 93.9648 Q18.8809 93.9648 18.8809 96.502 Q18.8809 98.7344 20.3574 98.7344 Q21.3184 98.7344 22.2383 97.6855 ZM30.1543 99.6719 L30.1543 90.3496 L31.3086 90.3496 L31.3086 94.4336 Q32.0176 93.0977 33.4355 93.0977 Q34.584 93.0977 35.2432 93.9355 Q35.9023 94.7734 35.9023 96.2266 Q35.9023 97.8086 35.1553 98.7783 Q34.4082 99.748 33.1895 99.748 Q32.0586 99.748 31.3086 98.8809 L31.168 99.6719 ZM31.3086 98.084 Q32.1992 98.8809 33.0078 98.8809 Q34.6719 98.8809 34.6719 96.3438 Q34.6719 94.1055 33.1953 94.1055 Q32.2285 94.1055 31.3086 95.1543 ZM42.8184 99.3965 Q41.6582 99.748 40.832 99.748 Q39.4258 99.748 38.5381 98.8135 Q37.6504 97.8789 37.6504 96.3906 Q37.6504 94.9434 38.4326 94.0176 Q39.2148 93.0918 40.4336 93.0918 Q41.5879 93.0918 42.2178 93.9121 Q42.8477 94.7324 42.8477 96.2441 L42.8418 96.6016 L38.8281 96.6016 Q39.0801 98.8691 41.0488 98.8691 Q41.7695 98.8691 42.8184 98.4824 ZM38.8809 95.7344 L41.6875 95.7344 Q41.6875 93.959 40.3633 93.959 Q39.0332 93.959 38.8809 95.7344 ZM46.8418 99.748 Q46.0508 99.748 44.9199 99.3789 L44.9199 98.3184 Q46.0508 98.8809 46.8887 98.8809 Q47.3867 98.8809 47.7148 98.6113 Q48.043 98.3418 48.043 97.9375 Q48.043 97.3457 47.123 96.959 L46.4492 96.6719 Q44.9551 96.0508 44.9551 94.8848 Q44.9551 94.0527 45.5439 93.5752 Q46.1328 93.0977 47.1582 93.0977 Q47.6914 93.0977 48.4766 93.2441 L48.7168 93.291 L48.7168 94.252 Q47.75 93.9648 47.1816 93.9648 Q46.0684 93.9648 46.0684 94.7734 Q46.0684 95.2949 46.9121 95.6523 L47.4688 95.8867 Q48.4121 96.2852 48.8047 96.7275 Q49.1973 97.1699 49.1973 97.832 Q49.1973 98.6699 48.5352 99.209 Q47.873 99.748 46.8418 99.748 ZM53.0645 99.748 Q52.1855 99.748 51.6934 99.2441 Q51.2012 98.7402 51.2012 97.8438 L51.2012 94.1055 L50.4043 94.1055 L50.4043 93.2383 L51.2012 93.2383 L51.2012 92.084 L52.3555 91.9727 L52.3555 93.2383 L54.0195 93.2383 L54.0195 94.1055 L52.3555 94.1055 L52.3555 97.6328 Q52.3555 98.8809 53.4336 98.8809 Q53.6621 98.8809 53.9902 98.8047 L53.9902 99.6016 Q53.457 99.748 53.0645 99.748 ZM58.4355 98.793 Q57.3984 99.748 56.4375 99.748 Q55.6465 99.748 55.125 99.2529 Q54.6035 98.7578 54.6035 98.002 Q54.6035 96.959 55.4795 96.3994 Q56.3555 95.8398 57.9902 95.8398 L58.2656 95.8398 L58.2656 95.0723 Q58.2656 93.9648 57.1289 93.9648 Q56.2148 93.9648 55.1543 94.5273 L55.1543 93.5723 Q56.3203 93.0977 57.3398 93.0977 Q58.4062 93.0977 58.9131 93.5781 Q59.4199 94.0586 59.4199 95.0723 L59.4199 97.9551 Q59.4199 98.9453 60.0293 98.9453 Q60.1055 98.9453 60.252 98.9219 L60.334 99.5605 Q59.9414 99.748 59.4668 99.748 Q58.6582 99.748 58.4355 98.793 ZM58.2656 98.166 L58.2656 96.5195 L57.8789 96.5078 Q56.9297 96.5078 56.3438 96.8682 Q55.7578 97.2285 55.7578 97.8145 Q55.7578 98.2305 56.0508 98.5176 Q56.3438 98.8047 56.7656 98.8047 Q57.4863 98.8047 58.2656 98.166 ZM55.6875 92.084 L55.6875 91.0703 L56.7012 91.0703 L56.7012 92.084 ZM58.002 92.084 L58.002 91.0703 L59.0156 91.0703 L59.0156 92.084 ZM64.0645 99.748 Q63.1855 99.748 62.6934 99.2441 Q62.2012 98.7402 62.2012 97.8438 L62.2012 94.1055 L61.4043 94.1055 L61.4043 93.2383 L62.2012 93.2383 L62.2012 92.084 L63.3555 91.9727 L63.3555 93.2383 L65.0195 93.2383 L65.0195 94.1055 L63.3555 94.1055 L63.3555 97.6328 Q63.3555 98.8809 64.4336 98.8809 Q64.6621 98.8809 64.9902 98.8047 L64.9902 99.6016 Q64.457 99.748 64.0645 99.748 ZM66.1543 99.6016 L66.1543 93.2383 L67.3086 93.2383 L67.3086 99.6016 ZM66.1543 92.084 L66.1543 90.9297 L67.3086 90.9297 L67.3086 92.084 ZM69.1777 101.7168 L69.3125 100.7148 Q70.3145 101.1895 71.2871 101.1895 Q73.2383 101.1895 73.2383 99.1211 L73.2383 98.1191 Q72.5996 99.4551 71.1406 99.4551 Q69.998 99.4551 69.3242 98.623 Q68.6504 97.791 68.6504 96.3789 Q68.6504 94.9258 69.418 94.0117 Q70.1855 93.0977 71.4043 93.0977 Q72.4707 93.0977 73.2383 93.9648 L73.2383 93.2383 L74.3984 93.2383 L74.3984 97.8672 Q74.3984 99.3613 74.2432 100.0791 Q74.0879 100.7969 73.6602 101.2539 Q72.9043 102.0566 71.3105 102.0566 Q70.1973 102.0566 69.1777 101.7168 ZM73.2383 97.3984 L73.2383 94.7559 Q72.4766 93.9648 71.5801 93.9648 Q70.7832 93.9648 70.332 94.6035 Q69.8809 95.2422 69.8809 96.3555 Q69.8809 98.4473 71.3516 98.4473 Q72.3535 98.4473 73.2383 97.3984 ZM80.8184 99.3965 Q79.6582 99.748 78.832 99.748 Q77.4258 99.748 76.5381 98.8135 Q75.6504 97.8789 75.6504 96.3906 Q75.6504 94.9434 76.4326 94.0176 Q77.2148 93.0918 78.4336 93.0918 Q79.5879 93.0918 80.2178 93.9121 Q80.8477 94.7324 80.8477 96.2441 L80.8418 96.6016 L76.8281 96.6016 Q77.0801 98.8691 79.0488 98.8691 Q79.7695 98.8691 80.8184 98.4824 ZM76.8809 95.7344 L79.6875 95.7344 Q79.6875 93.959 78.3633 93.959 Q77.0332 93.959 76.8809 95.7344 ZM83.1543 99.6016 L83.1543 93.2383 L84.3086 93.2383 L84.3086 94.4336 Q85.2227 93.0977 86.5469 93.0977 Q87.373 93.0977 87.8652 93.6221 Q88.3574 94.1465 88.3574 95.0312 L88.3574 99.6016 L87.2031 99.6016 L87.2031 95.4062 Q87.2031 94.6973 86.9951 94.3955 Q86.7871 94.0938 86.3066 94.0938 Q85.2461 94.0938 84.3086 95.4824 L84.3086 99.6016 Z"
                stroke="none" clip-path="url(#clipPath13)" />
        </g>
        <g font-size="11px" transform="translate(428,525)" fill-opacity="1" fill="rgb(255,128,128)"
            text-rendering="geometricPrecision" image-rendering="optimizeQuality" font-family="sans-serif"
            stroke="rgb(255,128,128)" stroke-opacity="1">
            <ellipse rx="66" ry="20" clip-path="url(#clipPath14)" cx="66" cy="20" stroke="none" />
        </g>
        <g stroke-linecap="butt" font-size="11px" transform="translate(428,525)" fill-opacity="1" fill="black"
            text-rendering="geometricPrecision" image-rendering="optimizeQuality" font-family="sans-serif"
            stroke-linejoin="round" stroke="black" stroke-opacity="1" stroke-miterlimit="0">
            <ellipse rx="66" fill="none" ry="20" clip-path="url(#clipPath14)" cx="66" cy="20" />
        </g>
        <g font-size="11px" transform="translate(428,525)" fill-opacity="1" fill="black"
            text-rendering="geometricPrecision" image-rendering="optimizeQuality" font-family="sans-serif"
            stroke="black" stroke-opacity="1"><text x="4" xml:space="preserve" y="24" clip-path="url(#clipPath15)"
                stroke="none">Änderungen verwerfen</text></g>
        <g font-size="11px" transform="translate(137,525)" fill-opacity="1" fill="black"
            text-rendering="geometricPrecision" image-rendering="optimizeQuality" font-family="sans-serif"
            stroke="black" stroke-opacity="1"><text x="10" xml:space="preserve" y="11" clip-path="url(#clipPath16)"
                stroke="none">kaufmännischer</text><text x="24" xml:space="preserve" y="25" clip-path="url(#clipPath16)"
                stroke="none">Mitarbeiter</text></g>
        <g font-size="11px" transform="translate(0,538)" fill-opacity="1" fill="black"
            text-rendering="geometricPrecision" image-rendering="optimizeQuality" font-family="sans-serif"
            stroke="black" stroke-opacity="1"><text x="10" xml:space="preserve" y="11" clip-path="url(#clipPath17)"
                stroke="none">Administrator</text></g>
        <g font-size="11px" transform="translate(50,368)" fill-opacity="1" fill="black"
            text-rendering="geometricPrecision" image-rendering="optimizeQuality" font-family="sans-serif"
            stroke="black" stroke-opacity="1"><text x="10" xml:space="preserve" y="11" clip-path="url(#clipPath18)"
                stroke="none">Vorgesetzter</text></g>
        <g stroke-linecap="butt" font-size="11px" transform="translate(270,250)" fill-opacity="1" fill="black"
            text-rendering="geometricPrecision" image-rendering="optimizeQuality" font-family="sans-serif"
            stroke-linejoin="round" stroke-dasharray="4" stroke="black" stroke-opacity="1">
            <line y2="110" fill="none" x1="165" clip-path="url(#clipPath20)" x2="50" y1="110" />
            <line y2="50" fill="none" x1="50" clip-path="url(#clipPath20)" x2="50" y1="110" />
            <line clip-path="url(#clipPath20)" fill="none" x1="50" x2="44" y1="50" y2="62" stroke-dasharray="none" />
            <line clip-path="url(#clipPath20)" fill="none" x1="50" x2="56" y1="50" y2="62" stroke-dasharray="none" />
        </g>
        <g stroke-linecap="butt" font-size="11px" transform="translate(432,233)" fill-opacity="1" fill="black"
            text-rendering="geometricPrecision" image-rendering="optimizeQuality" font-family="sans-serif"
            stroke-linejoin="round" stroke-dasharray="4" stroke="black" stroke-opacity="1">
            <line y2="50" fill="none" x1="50" clip-path="url(#clipPath22)" x2="50" y1="107" />
            <line clip-path="url(#clipPath22)" fill="none" x1="50" x2="44" y1="50" y2="62" stroke-dasharray="none" />
            <line clip-path="url(#clipPath22)" fill="none" x1="50" x2="56" y1="50" y2="62" stroke-dasharray="none" />
        </g>
        <g stroke-linecap="butt" font-size="11px" transform="translate(480,250)" fill-opacity="1" fill="black"
            text-rendering="geometricPrecision" image-rendering="optimizeQuality" font-family="sans-serif"
            stroke-linejoin="round" stroke-dasharray="4" stroke="black" stroke-opacity="1">
            <line y2="110" fill="none" x1="50" clip-path="url(#clipPath24)" x2="183" y1="110" />
            <line y2="50" fill="none" x1="183" clip-path="url(#clipPath24)" x2="183" y1="110" />
            <line clip-path="url(#clipPath24)" fill="none" x1="183" x2="177" y1="50" y2="62" stroke-dasharray="none" />
            <line clip-path="url(#clipPath24)" fill="none" x1="183" x2="189" y1="50" y2="62" stroke-dasharray="none" />
        </g>
        <g stroke-linecap="butt" font-size="11px" transform="translate(444,330)" fill-opacity="1" fill="black"
            text-rendering="geometricPrecision" image-rendering="optimizeQuality" font-family="sans-serif"
            stroke-linejoin="round" stroke-dasharray="4" stroke="black" stroke-opacity="1">
            <line y2="195" fill="none" x1="50" clip-path="url(#clipPath26)" x2="50" y1="50" />
            <line clip-path="url(#clipPath26)" fill="none" x1="50" x2="56" y1="195" y2="183" stroke-dasharray="none" />
            <line clip-path="url(#clipPath26)" fill="none" x1="50" x2="44" y1="195" y2="183" stroke-dasharray="none" />
        </g>
        <g stroke-linecap="butt" font-size="11px" transform="translate(555,79)" fill-opacity="1" fill="black"
            text-rendering="geometricPrecision" image-rendering="optimizeQuality" font-family="sans-serif"
            stroke-linejoin="round" stroke-dasharray="4" stroke="black" stroke-opacity="1">
            <line y2="191" fill="none" x1="50" clip-path="url(#clipPath28)" x2="50" y1="50" />
        </g>
        <g stroke-linecap="butt" font-size="11px" transform="translate(432,79)" fill-opacity="1" fill="black"
            text-rendering="geometricPrecision" image-rendering="optimizeQuality" font-family="sans-serif"
            stroke-linejoin="round" stroke-dasharray="4" stroke="black" stroke-opacity="1">
            <line y2="164" fill="none" x1="50" clip-path="url(#clipPath30)" x2="50" y1="50" />
        </g>
        <g stroke-linecap="butt" font-size="11px" transform="translate(310,79)" fill-opacity="1" fill="black"
            text-rendering="geometricPrecision" image-rendering="optimizeQuality" font-family="sans-serif"
            stroke-linejoin="round" stroke-dasharray="4" stroke="black" stroke-opacity="1">
            <line y2="185" fill="none" x1="50" clip-path="url(#clipPath32)" x2="50" y1="50" />
        </g>
        <g stroke-linecap="butt" font-size="11px" transform="translate(59,310)" fill-opacity="1" fill="black"
            text-rendering="geometricPrecision" image-rendering="optimizeQuality" font-family="sans-serif"
            stroke-linejoin="round" stroke="black" stroke-opacity="1">
            <line y2="50" fill="none" x1="50" clip-path="url(#clipPath34)" x2="376" y1="50" />
        </g>
        <g stroke-linecap="butt" font-size="11px" transform="translate(44,334)" fill-opacity="1" fill="black"
            text-rendering="geometricPrecision" image-rendering="optimizeQuality" font-family="sans-serif"
            stroke-linejoin="round" stroke="black" stroke-opacity="1">
            <line y2="201" fill="none" x1="50" clip-path="url(#clipPath36)" x2="50" y1="50" />
            <polygon fill="white" clip-path="url(#clipPath36)" points=" 50 50 44 62 56 62" stroke="none" />
            <polygon fill="none" points=" 50 50 44 62 56 62" clip-path="url(#clipPath36)" />
        </g>
        <g stroke-linecap="butt" font-size="11px" transform="translate(91,330)" fill-opacity="1" fill="black"
            text-rendering="geometricPrecision" image-rendering="optimizeQuality" font-family="sans-serif"
            stroke-linejoin="round" stroke="black" stroke-opacity="1">
            <line y2="50" fill="none" x1="50" clip-path="url(#clipPath38)" x2="84" y1="50" />
            <line y2="134" fill="none" x1="84" clip-path="url(#clipPath38)" x2="84" y1="50" />
            <polygon fill="white" clip-path="url(#clipPath38)" points=" 50 50 62 56 62 44" stroke="none" />
            <polygon fill="none" points=" 50 50 62 56 62 44" clip-path="url(#clipPath38)" />
        </g>
        <g font-size="11px" transform="translate(398,445)" fill-opacity="1" fill="black"
            text-rendering="geometricPrecision" image-rendering="optimizeQuality" font-family="sans-serif"
            stroke="black" stroke-opacity="1"><text x="10" xml:space="preserve" y="11" clip-path="url(#clipPath17)"
                stroke="none">&lt;&lt;Include&gt;&gt;</text></g>
        <g font-size="11px" transform="translate(554,344)" fill-opacity="1" fill="black"
            text-rendering="geometricPrecision" image-rendering="optimizeQuality" font-family="sans-serif"
            stroke="black" stroke-opacity="1"><text x="10" xml:space="preserve" y="11" clip-path="url(#clipPath17)"
                stroke="none">&lt;&lt;Include&gt;&gt;</text></g>
        <g font-size="11px" transform="translate(386,304)" fill-opacity="1" fill="black"
            text-rendering="geometricPrecision" image-rendering="optimizeQuality" font-family="sans-serif"
            stroke="black" stroke-opacity="1"><text x="10" xml:space="preserve" y="11" clip-path="url(#clipPath17)"
                stroke="none">&lt;&lt;Include&gt;&gt;</text></g>
        <g font-size="11px" transform="translate(325,344)" fill-opacity="1" fill="black"
            text-rendering="geometricPrecision" image-rendering="optimizeQuality" font-family="sans-serif"
            stroke="black" stroke-opacity="1"><text x="10" xml:space="preserve" y="11" clip-path="url(#clipPath17)"
                stroke="none">&lt;&lt;Include&gt;&gt;</text></g>
        <g font-size="8px" fill-opacity="1" fill="rgb(120,120,120)" text-rendering="geometricPrecision"
            image-rendering="optimizeQuality" stroke="rgb(120,120,120)" stroke-opacity="1"></g>
    </g>
</svg>